<?xml version="1.0" encoding="utf-8"?>
<!-- Generator: Adobe Illustrator 22.0.0, SVG Export Plug-In . SVG Version: 6.00 Build 0)  -->
<svg version="1.1" id="Layer_1" xmlns="http://www.w3.org/2000/svg" xmlns:xlink="http://www.w3.org/1999/xlink" x="0px" y="0px"
	 viewBox="0 0 150 150.2" style="enable-background:new 0 0 150 150.2;" xml:space="preserve">
<style type="text/css">
	.st0{fill:#FF7800;}
	.st1{fill:#FFFFFF;}
</style>
<g>
	<path class="st0" d="M141.2,101c-4.9-4.6-8.1-5.3-12.1-8.2c-12.2-8.9-15.1-27.6-5.8-39.7c2.7-3.5,6-5.9,9.7-8.4
		c3.9-2.6,7.4-6.3,9.3-10.2c3.7-7.8,2.8-17.7-2.9-25.1c-5.4-7-14-10.7-23.3-9c-4.4,0.8-8.1,2.6-11.9,6c-3.8,3.4-4.8,7-9.2,11.3
		c-6.9,6.8-15.2,10.1-25.1,9.5c-4.8-0.3-8.9-1.5-13.7-4.2c-5.2-2.9-7.3-6.5-11.3-7.4c-4.2-1-8.8,0.2-11.6,3.4
		c-3.8,4.4-3.3,8.4-1.6,13.6c1.6,4.9,2.9,9.7,3.2,14.9c0.3,5.1-0.3,10.3-1.8,15.2c-2.7,9-9.2,17.4-15.5,23
		c-5.2,4.6-8.8,5.3-12.2,8.5C2.1,97.3,0,101.6,0,106.4c0,8.4,6,15.4,13.9,16.8c6.2,1.2,12.1-1.7,14-2.3c12.9-4.1,29.1-3.6,40.8-0.2
		c9.7,2.8,18,7.8,25.8,14.1c3.8,3,6.6,7.1,10.6,9.9c10.2,7.2,27.7,8.7,38.9-5.8C151.6,129.3,153.4,112.4,141.2,101"/>
	<path class="st1" d="M93,48.2c-3.8,0-5.2,3-5.2,5.2v4c-3.9-5.2-9.2-8.7-16.4-8.7c-5.9,0-10.9,2.4-15,7.1
		c-4.1,4.7-6.2,10.4-6.2,17.1c0,6.7,2.1,12.4,6.2,17.1c4.2,4.8,9.2,7.1,15,7.1c7.7,0,13.1-4.2,16.4-8.8v4.3c0,1.9,1.6,5,5.2,5
		c3.6,0,5.1-3.1,5.1-5.2V53.3C98.1,50,95.2,48.2,93,48.2 M74.2,87.6c-7.9,0-13.6-7.2-13.6-14.9c0-8.2,5.8-14.9,13.6-14.9
		c8.3,0,13.6,7.5,13.6,14.9C87.8,80.5,82.2,87.6,74.2,87.6"/>
</g>
</svg>
