<?xml version="1.0" encoding="utf-8"?>
<!-- Generator: Adobe Illustrator 22.0.1, SVG Export Plug-In . SVG Version: 6.00 Build 0)  -->
<svg version="1.1" id="Layer_1" xmlns="http://www.w3.org/2000/svg" xmlns:xlink="http://www.w3.org/1999/xlink" x="0px" y="0px"
	 viewBox="0 0 1022 196" style="enable-background:new 0 0 1022 196;" xml:space="preserve">
<style type="text/css">
	.st0{fill-rule:evenodd;clip-rule:evenodd;fill:#FFFFFF;}
	.st1{fill:#FFFFFF;}
	.st2{fill:url(#SVGID_1_);}
	.st3{fill:url(#SVGID_2_);}
	.st4{fill:url(#SVGID_3_);}
	.st5{fill:url(#SVGID_4_);}
	.st6{fill:url(#SVGID_5_);}
	.st7{opacity:0.17;clip-path:url(#SVGID_7_);fill:url(#SVGID_8_);}
	.st8{opacity:0.2;clip-path:url(#SVGID_10_);fill:url(#SVGID_11_);}
	.st9{opacity:0.3;clip-path:url(#SVGID_13_);fill:url(#SVGID_14_);}
</style>
<symbol  id="map_copy" viewBox="-5 -204 239.7 213.7">
	<g id="Layer_3_7_">
		<path class="st0" d="M106.8,1.5L92.6-23L64.9-42.8l8.9,31.2L62.8-4l8.6,10.4l29.8,3.4L106.8,1.5z M210.7-27.5
			c1.4-1.8,2.9-3.7,4.5-5.6c2.1-3.2,3.9-6.5,5.6-9.6c0.5-1,1.1-2,1.6-3.1c3.7-7,6.6-14.5,8.6-22.3c0.4-1.4,0.8-2.9,1.2-4.4
			c1.1-4.6,1.9-9.5,2.4-14.5c0-0.1,0-0.1,0-0.2v-0.1l-13.5-38.5h-5.8l-2.1,22.5l-12.7-21.2l-10.1,21.2l-12.6,0.8l4.5-6.8l-12-5
			l-21.2,21.1l20-40.9l-13.1-9.6v-12.6l-20.4-23.1l-6,0.9l-6.7,20.9l4.8,6l-13.2,22.9l-13.8-3.6l-17.5,16.6l13.9,22.6l22.8,8.6
			l3-4.9l26.1-3.8l5.5,8l-9.4-2.5l-6.3,9.9l0.3-7.6l-7.1,4.2l-4.1-5.4l-1.5,8.7l-7.4,4.4L106-85.2l-7.1-2.5L98.1-74l5.8-0.5
			l-1.9,6.2l15,7.1l3.3,7.5l7.5-3l11.9,12.4l-4,6.8L128-51.5l-13,9.9l16.9,21.1L146-29l10,6.3l5.2,10L165,1.8l20.7-5.2
			c5.2-3.6,9.8-7.6,14-11.8c2.1-2,4.2-4.1,6.1-6.4C207.5-23.6,209.2-25.6,210.7-27.5z M212.3-129.9l16.4,2.6l-13.5-25L212.3-129.9z
			 M165-75l7.5-10.5l-4.4,21.8L165-75z M204.6-179.2l-14.1-3.8l30.4,25.8C216.3-165.2,210.9-172.6,204.6-179.2z M143.1-74.3l2.7-3.4
			l13.2-1.6l-7.9,9.5L143.1-74.3z M99.6-48.8l5.2,1.9l9.5-13.5H94.8l7.5,8.2L99.6-48.8z M90.8-40.6l-6.6,7.5h17.1L90.8-40.6z
			 M50.7-7.8l-6.4-8.3l9.5,2.9c5,1.8,7.1-0.5,6.4-6.9l-1.6-10.5c-0.4-4.4-2.4-4.7-6-0.9C51.3-30,49.8-29,48-28.4
			c-3.4,1.2-7.3,0.1-11.6-3.5c-4.3-3.4-7.7-7.9-10.2-13.6l8.2-4.1c3.9,9.2,7.7,12.9,11.4,11.1c2.6-1.1,4.2-3.5,4.9-7.2l0.8-11.6
			c0.4-6.9-2.5-11.1-8.9-12.4l-3-1l-22.7-36.8l5.1-19.8l6.9,8.1l12.9-9l6.9-0.8l1.8-6.3l6.3-2.5c8.2-3,12.6-8.8,13.2-17.6l0.2-2.9
			c0.3-6.8-1.8-14.1-6.4-21.9L77.3-204c-27,17.4-43.7,36.8-50.2,58.2l-5.2,18.5L-5-98l1.3,15.2l-0.1,0.1h0.1
			c3.2,23,12.7,43.3,28.4,60.9c3.9,4.5,7.9,8.4,11.9,11.7l13.2,6.7L50.7-7.8z M160-176.6l-5.4,10.1l4.4,9.3l16.5,2.5L160-176.6z
			 M27.1-114.6l-5.9,12l19.5-17.2L27.1-114.6z"/>
	</g>
</symbol>
<g>
	<path class="st1" d="M253.5,128l21.7-61h10.3l21.8,61h-8.5l-5.2-15h-26.5l-5.1,15H253.5z M269.3,106.6h22l-7.7-22.7
		c-0.7-2.2-1.3-4-1.8-5.4c-0.5-1.4-0.9-2.9-1.4-4.5h-0.2c-0.5,1.6-0.9,3.1-1.4,4.5c-0.4,1.4-1,3.3-1.7,5.4L269.3,106.6z"/>
	<path class="st1" d="M306.1,67h8.6l11.9,35.3c1.1,3.2,2.1,6.4,3.2,9.6s1.9,5.8,2.5,8h0.4c0.7-2.2,1.5-4.8,2.5-8s2.1-6.4,3.1-9.6
		L350.2,67h8.3l-21.1,61h-10.3L306.1,67z"/>
	<path class="st1" d="M360.7,97.8c0-6.1,0.6-11.2,1.9-15.3c1.3-4.1,3.1-7.4,5.5-9.8s5.3-4.2,8.8-5.2c3.5-1,7.5-1.5,12-1.5
		c0.9,0,2,0,3.2,0.1s2.6,0.2,4.1,0.3c1.4,0.1,2.9,0.4,4.4,0.6c1.5,0.3,3,0.6,4.4,1v6.7c-2.6-0.7-5.3-1.2-7.9-1.5
		c-2.6-0.4-4.9-0.5-6.8-0.5c-3.4,0-6.4,0.3-9.1,1c-2.6,0.7-4.8,1.9-6.6,3.7s-3.1,4.4-4,7.6c-0.9,3.3-1.4,7.5-1.4,12.7
		c0,5,0.5,9.2,1.5,12.4c1,3.2,2.3,5.7,3.9,7.5c1.6,1.8,3.6,3,5.8,3.7s4.5,1,6.9,1c2,0,4.1-0.1,6.2-0.3c2.1-0.2,4.4-0.7,6.8-1.5
		v-20.5h-15.1v-6.4h23.3v31c-3.5,1.7-7,2.9-10.4,3.6s-6.9,0.9-10.2,0.9c-4.4,0-8.2-0.5-11.6-1.6c-3.4-1.1-6.2-2.9-8.5-5.4
		s-4.1-5.7-5.3-9.7C361.3,108.5,360.7,103.6,360.7,97.8z"/>
	<path class="st1" d="M435,83.3c0-3.4,0.6-6.3,1.9-8.5c1.3-2.3,3-4,5.2-5.3c2.2-1.3,4.6-2.2,7.4-2.8c2.8-0.5,5.7-0.8,8.7-0.8
		c0.7,0,1.7,0,2.9,0.1s2.5,0.1,3.9,0.3s2.8,0.3,4.3,0.6c1.5,0.3,2.8,0.7,4.1,1.1v6.8c-2.9-1-5.7-1.6-8.4-1.8c-2.7-0.2-5-0.3-7-0.3
		c-4.6,0-8.2,0.8-10.7,2.5c-2.5,1.7-3.7,4.1-3.7,7.2c0,2.3,0.4,4,1.2,5.2c0.8,1.2,1.9,2.1,3.2,2.7s2.9,1,4.7,1.2
		c1.8,0.2,3.7,0.4,5.8,0.7c2.4,0.3,4.9,0.6,7.3,0.9c2.4,0.3,4.5,1.1,6.3,2.5c1.8,1.3,3.2,3.2,4.3,5.6c1.1,2.4,1.6,5.5,1.6,9.3
		c0,3.7-0.7,6.7-2.2,9.1c-1.4,2.4-3.3,4.3-5.7,5.7c-2.3,1.4-5,2.4-7.9,3c-3,0.6-6,0.8-9,0.8c-0.7,0-1.8,0-3.2-0.1
		c-1.4-0.1-3-0.2-4.7-0.5c-1.7-0.3-3.4-0.5-5.1-0.8c-1.7-0.3-3.2-0.6-4.6-1.1v-6.9c1.4,0.3,3.2,0.6,5.3,1c2.1,0.3,4.1,0.6,6,0.9
		c2,0.3,3.6,0.5,4.9,0.6c1.3,0.1,2.4,0.1,3.3,0.1c5.2,0,8.9-1,11.1-3.1s3.3-4.7,3.3-8c0-2.4-0.4-4.4-1.2-5.8s-1.8-2.5-3.2-3.2
		s-2.9-1.2-4.8-1.5s-3.9-0.5-6-0.8c-2.6-0.3-5.1-0.6-7.5-0.9s-4.4-1.1-6.2-2.4s-3.1-3-4.1-5.1C435.5,89.3,435,86.6,435,83.3z"/>
	<path class="st1" d="M483.2,105.1c0-4.5,0.5-8.3,1.5-11.3c1-3.1,2.4-5.5,4.2-7.4c1.8-1.9,3.9-3.2,6.4-4.1c2.5-0.8,5.2-1.2,8.2-1.2
		c6.5,0,11.1,1.6,14,4.9c2.9,3.3,4.3,8,4.3,14.3c0,0.5,0,1.5-0.1,2.8c-0.1,1.3-0.2,2.5-0.3,3.5h-30.3c0.1,2.9,0.4,5.4,1,7.6
		c0.5,2.2,1.5,3.9,2.9,5.3c2.2,2.2,5.9,3.3,11.1,3.3c0,0,0.1,0,0.1,0c1.9,0,4.1-0.1,6.5-0.4c2.4-0.3,4.8-0.8,7.1-1.8v6.3
		c-1.1,0.4-2.3,0.8-3.6,1c-1.3,0.3-2.7,0.5-4,0.7c-1.3,0.2-2.6,0.3-3.9,0.4c-1.3,0.1-2.4,0.1-3.4,0.1c-7.6,0-13.2-1.9-16.6-5.8
		S483.2,113.3,483.2,105.1z M491.2,100.5h23.1c0.1-0.6,0.1-1,0.1-1.3c0-0.3,0-0.5,0-0.6c0-1.9-0.2-3.6-0.6-5.1
		c-0.4-1.5-1.1-2.7-2-3.7c-0.9-0.9-2.1-1.5-3.5-1.9c-1.4-0.4-3.1-0.6-4.9-0.6c-1.6,0-3.1,0.2-4.5,0.6c-1.5,0.4-2.8,1.2-3.9,2.3
		C493,92.2,491.7,95.6,491.2,100.5z"/>
	<path class="st1" d="M527.8,105c0-3.6,0.3-6.9,1-9.8c0.7-2.9,1.8-5.5,3.5-7.6s3.8-3.8,6.6-4.9c2.8-1.1,6.3-1.7,10.5-1.7
		c1.6,0,3.3,0.1,5.2,0.3s3.9,0.6,6,1.4v6.3c-1.9-0.7-3.8-1.2-5.5-1.3c-1.8-0.2-3.4-0.3-4.9-0.3c-2.3,0-4.4,0.2-6.1,0.7
		c-1.7,0.5-3.2,1.3-4.4,2.5c-1.4,1.4-2.4,3.3-3.1,5.7c-0.7,2.5-1,5.4-1,8.7c0,3.4,0.3,6.2,0.9,8.5c0.6,2.3,1.7,4.2,3.3,5.8
		c1.2,1.2,2.6,2,4.3,2.4c1.7,0.4,3.7,0.6,5.9,0.6c1.6,0,3.4-0.1,5.4-0.4c2.1-0.3,4.2-0.9,6.4-1.7v6.7c-2.4,0.8-4.6,1.4-6.7,1.7
		c-2,0.3-4,0.5-5.9,0.5c-7.4,0-12.9-1.9-16.4-5.8C529.5,119.5,527.8,113.4,527.8,105z"/>
	<path class="st1" d="M568.4,114.5V82.1h7.4V113c0,3.4,0.6,5.8,1.9,7.3c1.3,1.4,3.6,2.1,7.1,2.1c2.8,0,5.5-0.6,8.1-1.9
		c2.5-1.3,4.8-3.2,6.7-5.6V82.1h7.4V128h-5.3l-1.1-6.4h-0.1c-2.6,2.7-5.4,4.5-8.4,5.6s-6,1.6-9,1.6c-2.8,0-5.2-0.3-7-0.9
		s-3.4-1.5-4.5-2.7s-1.9-2.7-2.4-4.5S568.4,116.9,568.4,114.5z"/>
	<path class="st1" d="M618.6,128V82.1h5.3l1,7h0.1c1.4-2.3,3.2-4.2,5.3-5.6s4.6-2.1,7.7-2.1c1.4,0,2.6,0.1,3.6,0.3s2,0.6,3.1,1.1
		v6.4c-1.3-0.7-2.4-1.1-3.4-1.2s-2-0.2-2.8-0.2c-1.6,0-3.1,0.2-4.3,0.7c-1.2,0.5-2.3,1.1-3.3,1.9c-1,0.8-1.9,1.8-2.7,2.9
		c-0.8,1.1-1.5,2.3-2.2,3.6V128H618.6z"/>
	<path class="st1" d="M646.5,105.1c0-4.5,0.5-8.3,1.5-11.3c1-3.1,2.4-5.5,4.2-7.4c1.8-1.9,3.9-3.2,6.4-4.1c2.5-0.8,5.2-1.2,8.2-1.2
		c6.5,0,11.1,1.6,14,4.9c2.9,3.3,4.3,8,4.3,14.3c0,0.5,0,1.5-0.1,2.8c-0.1,1.3-0.2,2.5-0.3,3.5h-30.3c0.1,2.9,0.4,5.4,1,7.6
		c0.5,2.2,1.5,3.9,2.9,5.3c2.2,2.2,5.9,3.3,11.1,3.3c0,0,0.1,0,0.1,0c1.9,0,4.1-0.1,6.5-0.4c2.4-0.3,4.8-0.8,7.1-1.8v6.3
		c-1.1,0.4-2.3,0.8-3.6,1c-1.3,0.3-2.7,0.5-4,0.7c-1.3,0.2-2.6,0.3-3.9,0.4c-1.3,0.1-2.4,0.1-3.4,0.1c-7.6,0-13.2-1.9-16.6-5.8
		S646.5,113.3,646.5,105.1z M654.6,100.5h23.1c0.1-0.6,0.1-1,0.1-1.3c0-0.3,0-0.5,0-0.6c0-1.9-0.2-3.6-0.6-5.1
		c-0.4-1.5-1.1-2.7-2-3.7c-0.9-0.9-2.1-1.5-3.5-1.9c-1.4-0.4-3.1-0.6-4.9-0.6c-1.6,0-3.1,0.2-4.5,0.6c-1.5,0.4-2.8,1.2-3.9,2.3
		C656.3,92.2,655,95.6,654.6,100.5z"/>
	<path class="st1" d="M711.8,128V67h20.6c3.7,0,7,0.3,9.9,0.8c2.8,0.5,5.2,1.8,7.2,3.7c1.2,1.2,2.1,2.7,2.8,4.5c0.7,1.8,1,4,1,6.5
		c0,2-0.2,3.7-0.6,5.2s-1,2.8-1.7,3.9c-0.7,1.1-1.6,2-2.5,2.8c-1,0.7-1.9,1.4-3,1.9v0.2c1.1,0.4,2.3,1,3.4,1.9
		c1.1,0.8,2.2,1.8,3.1,3s1.7,2.6,2.3,4.2c0.6,1.6,0.9,3.4,0.9,5.5c0,2.7-0.4,5.1-1.2,7.1c-0.8,2-1.8,3.7-3.1,5c-2.1,2-4.7,3.4-7.8,4
		c-3.1,0.6-6.6,0.9-10.7,0.9H711.8z M720,93.7h12.9c2.2,0,4-0.2,5.6-0.5c1.6-0.4,2.9-1.1,4.1-2.3c1.4-1.4,2.2-3.9,2.2-7.4
		c0-3.4-0.7-5.7-2.2-7.2c-1.2-1.2-2.6-2-4.1-2.3c-1.6-0.4-3.4-0.5-5.6-0.5H720V93.7z M720,121.6h14c2.3,0,4.3-0.2,5.9-0.6
		c1.6-0.4,3.1-1.2,4.4-2.5c0.8-0.8,1.4-1.9,1.8-3.2c0.3-1.3,0.5-2.8,0.5-4.6c0-1.8-0.2-3.3-0.5-4.5c-0.3-1.2-0.9-2.2-1.8-3.1
		c-1.3-1.3-2.7-2.2-4.4-2.5s-3.6-0.5-5.9-0.5h-14V121.6z"/>
	<path class="st1" d="M763.3,128V82.1h5.3l1,7h0.1c1.4-2.3,3.2-4.2,5.3-5.6c2.1-1.4,4.6-2.1,7.7-2.1c1.4,0,2.6,0.1,3.6,0.3
		c1,0.2,2,0.6,3.1,1.1v6.4c-1.3-0.7-2.4-1.1-3.4-1.2c-1-0.1-2-0.2-2.8-0.2c-1.6,0-3.1,0.2-4.3,0.7c-1.2,0.5-2.3,1.1-3.3,1.9
		s-1.9,1.8-2.7,2.9c-0.8,1.1-1.5,2.3-2.2,3.6V128H763.3z"/>
	<path class="st1" d="M791.1,105.1c0-4.6,0.5-8.4,1.5-11.4c1-3.1,2.5-5.5,4.4-7.4c1.9-1.9,4.2-3.2,6.8-4c2.6-0.8,5.6-1.2,8.8-1.2
		c3.3,0,6.2,0.4,8.8,1.2c2.6,0.8,4.9,2.1,6.8,4s3.4,4.3,4.4,7.4c1,3.1,1.5,6.9,1.5,11.4s-0.5,8.4-1.5,11.4c-1,3.1-2.5,5.5-4.4,7.4
		s-4.2,3.2-6.8,4s-5.6,1.2-8.8,1.2c-3.3,0-6.2-0.4-8.8-1.2s-4.9-2.1-6.8-4c-1.9-1.9-3.4-4.3-4.4-7.4
		C791.7,113.4,791.1,109.6,791.1,105.1z M799.1,105.1c0,3.6,0.3,6.6,0.9,8.9c0.6,2.3,1.6,4.2,2.9,5.5c1.2,1.2,2.6,2.1,4.2,2.6
		c1.6,0.5,3.5,0.8,5.6,0.8c2.1,0,4-0.3,5.6-0.8c1.6-0.5,3-1.4,4.2-2.6c1.3-1.3,2.3-3.1,2.9-5.5c0.6-2.3,0.9-5.3,0.9-8.9
		s-0.3-6.6-0.9-8.9s-1.6-4.2-2.9-5.5c-1.2-1.2-2.6-2.1-4.2-2.6c-1.6-0.5-3.5-0.8-5.6-0.8c-2.1,0-3.9,0.3-5.6,0.8
		c-1.6,0.5-3,1.4-4.2,2.6c-1.3,1.3-2.3,3.1-2.9,5.5C799.4,98.5,799.1,101.4,799.1,105.1z"/>
	<path class="st1" d="M836.9,82.1h7.4l6.7,23.3c0.3,1.2,0.7,2.4,1.1,3.8c0.4,1.3,0.8,2.7,1.1,4s0.7,2.6,1.1,3.8
		c0.4,1.2,0.7,2.3,0.9,3.2h0.2c0.2-0.8,0.6-1.8,1-3c0.4-1.2,0.9-2.4,1.4-3.8c0.5-1.4,1-2.7,1.5-4.1c0.5-1.3,1-2.6,1.4-3.8l6.1-16
		l-2.9-7.5h7.7l8.7,23.5l5.1,14.6h0.2c0.2-0.9,0.5-2,0.8-3.2c0.3-1.2,0.6-2.5,0.9-3.9s0.7-2.7,1-4c0.4-1.3,0.7-2.6,1.1-3.8l6.9-23.1
		h7.4L889.7,128h-8.2l-11.3-29.4h-0.1L859,128h-8.1L836.9,82.1z"/>
	<path class="st1" d="M907.5,94.5c0-2.6,0.5-4.8,1.5-6.6c1-1.8,2.4-3.1,4.1-4.2c1.8-1,3.8-1.7,6-2.1c2.3-0.4,4.6-0.6,7.1-0.6
		c2.5,0.1,4.4,0.1,5.5,0.3c1.1,0.1,2.3,0.3,3.5,0.5c1.2,0.2,2.3,0.5,3.3,0.9V89c-2.3-0.8-6.5-1.3-12.5-1.7c-7.4,0-11.1,2.4-11.1,7.2
		c0.1,2.8,0.9,4.6,2.4,5.4c1.5,0.8,2.9,1.2,4.2,1.3c1.3,0.1,2.6,0.2,4,0.2c5.2,0.2,8.7,0.8,10.5,1.8c1.9,1,3.3,2.4,4.4,4.2
		c1.1,1.8,1.6,4.2,1.6,7.4c0,2.6-0.5,4.8-1.6,6.6c-1.1,1.8-2.5,3.3-4.3,4.4c-1.8,1.1-3.9,2-6.3,2.5c-2.4,0.5-5,0.8-7.6,0.8
		c-5.3-0.1-10-0.3-14.2-0.7v-6.7c5.2,0.5,9.5,0.7,12.9,0.7c3.4-0.1,5.9-0.3,7.5-0.6c1.6-0.4,2.8-0.8,3.6-1.3s1.4-1.2,1.9-2.1
		c0.5-0.9,0.7-2,0.7-3.2c0-1.7-0.3-3-0.8-3.9c-0.6-0.9-1.3-1.6-2.3-2s-2-0.7-3.1-0.8c-1-0.1-2.5-0.2-4.3-0.2
		c-5.4-0.1-9.1-0.8-11.2-2.2c-2.1-1.4-3.5-2.8-4.2-4.4C907.9,100,907.5,97.6,907.5,94.5z"/>
	<path class="st1" d="M947.4,105.1c0-4.5,0.5-8.3,1.5-11.3c1-3.1,2.4-5.5,4.2-7.4c1.8-1.9,3.9-3.2,6.4-4.1c2.5-0.8,5.2-1.2,8.2-1.2
		c6.5,0,11.1,1.6,14,4.9c2.9,3.3,4.3,8,4.3,14.3c0,0.5,0,1.5-0.1,2.8c-0.1,1.3-0.2,2.5-0.3,3.5h-30.3c0.1,2.9,0.4,5.4,1,7.6
		c0.5,2.2,1.5,3.9,2.9,5.3c2.2,2.2,5.9,3.3,11.1,3.3c0,0,0.1,0,0.1,0c1.9,0,4.1-0.1,6.5-0.4s4.8-0.8,7.1-1.8v6.3
		c-1.1,0.4-2.3,0.8-3.6,1s-2.7,0.5-4,0.7c-1.3,0.2-2.6,0.3-3.9,0.4s-2.4,0.1-3.4,0.1c-7.6,0-13.2-1.9-16.6-5.8
		C949.1,119.4,947.4,113.3,947.4,105.1z M955.4,100.5h23.1c0.1-0.6,0.1-1,0.1-1.3c0-0.3,0-0.5,0-0.6c0-1.9-0.2-3.6-0.6-5.1
		c-0.4-1.5-1.1-2.7-2-3.7c-0.9-0.9-2.1-1.5-3.5-1.9c-1.4-0.4-3.1-0.6-4.9-0.6c-1.6,0-3.1,0.2-4.5,0.6c-1.5,0.4-2.8,1.2-3.9,2.3
		C957.2,92.2,955.9,95.6,955.4,100.5z"/>
	<path class="st1" d="M994.7,128V82.1h5.3l1,7h0.1c1.4-2.3,3.2-4.2,5.3-5.6c2.1-1.4,4.6-2.1,7.7-2.1c1.4,0,2.6,0.1,3.6,0.3
		c1,0.2,2,0.6,3.1,1.1v6.4c-1.3-0.7-2.4-1.1-3.4-1.2c-1-0.1-2-0.2-2.8-0.2c-1.6,0-3.1,0.2-4.3,0.7c-1.2,0.5-2.3,1.1-3.3,1.9
		s-1.9,1.8-2.7,2.9c-0.8,1.1-1.5,2.3-2.2,3.6V128H994.7z"/>
</g>
<g>
	<circle class="st1" cx="98.5" cy="97.5" r="87.5"/>
	<linearGradient id="SVGID_1_" gradientUnits="userSpaceOnUse" x1="40.416" y1="104.8535" x2="156.1192" y2="104.8535">
		<stop  offset="0" style="stop-color:#E6E6E6"/>
		<stop  offset="0.1614" style="stop-color:#F6F6F6"/>
		<stop  offset="0.3" style="stop-color:#FFFFFF"/>
		<stop  offset="0.7" style="stop-color:#FFFFFF"/>
		<stop  offset="0.8386" style="stop-color:#F6F6F6"/>
		<stop  offset="1" style="stop-color:#E6E6E6"/>
	</linearGradient>
	<path class="st2" d="M40.4,74.5C39.9,114,64,147.6,98,163.4c33.5-15.1,57.8-48.4,58.1-87.7c0-3.6-0.2-7.1-0.5-10.6h0
		c-15.8-11.7-35.4-18.6-56.5-18.8C77.4,46.1,57.3,53.1,41,65c0,0.1,0,0.2,0,0.3C40.7,68.3,40.5,71.4,40.4,74.5z M47.7,70.1
		c18.1-12.6,35.3-15.6,44-16.2l0,0l0,0c0,0,0.1,0,0.1,0c3-0.2,5.1-0.2,5.9-0.2c0.2,0,0.3,0,0.3,0l0.1,0l0.1,0c0,0,0.1,0,0.3,0
		c0.8,0,2.9,0,5.9,0.2c0,0,0.1,0,0.1,0l0,0l0,0c8.8,0.6,25.9,3.5,44,16.2c0.4,4.7,0.8,16.9-3.4,31.3c-3.1,10.7-8.2,20.5-15,28.9
		c-8.2,10.1-18.9,18.4-32,24.7c-13-6.3-23.7-14.6-31.8-24.5c-6.8-8.4-11.9-18.1-15.1-28.8C46.9,87.4,47.3,74.9,47.7,70.1z"/>
	<linearGradient id="SVGID_2_" gradientUnits="userSpaceOnUse" x1="77.3719" y1="171.1716" x2="23.1494" y2="22.1967">
		<stop  offset="0" style="stop-color:#1B84E2"/>
		<stop  offset="0.35" style="stop-color:#2299FF"/>
		<stop  offset="1" style="stop-color:#00DCFF"/>
	</linearGradient>
	<path class="st3" d="M40.4,74.5c0-3.1,0.2-6.1,0.6-9.2c0-0.1,0-0.2,0-0.3c0-0.1,0-0.3,0-0.4c0.1-0.8,0.2-1.6,0.3-2.4
		c1.1-7.9,3.2-15.4,6-22.5c5.4-13.4,13.8-25.3,24.2-35c-0.1,0-0.2,0.1-0.4,0.1c-0.3,0.1-0.7,0.2-1,0.3C31.2,17.3,2.6,53.3,2,96.3
		c-0.1,8.1,0.8,16,2.6,23.6c4.3,18.4,13.9,34.8,27.1,47.5c1.9,0.6,3.9,1.1,5.9,1.6c6.8,1.6,13.8,2.4,21.1,2.5
		c5.8,0,11.4-0.4,16.9-1.3c7.6-1.3,14.9-3.3,21.7-6.3c0.1-0.1,0.3-0.1,0.4-0.2c0.1,0,0.1-0.1,0.2-0.1c0.1,0,0.2-0.1,0.2-0.1
		C64,147.6,39.9,114,40.4,74.5z"/>
	<linearGradient id="SVGID_3_" gradientUnits="userSpaceOnUse" x1="41.0376" y1="60.5771" x2="195" y2="60.5771">
		<stop  offset="2.237751e-03" style="stop-color:#D61132"/>
		<stop  offset="0.3518" style="stop-color:#EE1144"/>
		<stop  offset="0.9969" style="stop-color:#EE4466"/>
	</linearGradient>
	<path class="st4" d="M126.1,5.1c-8.6-2.6-17.7-4-27.1-4.1C89.5,1,80.3,2.3,71.6,4.7c-10.5,9.7-18.8,21.6-24.2,35
		c-2.9,7.1-4.9,14.7-6,22.5c-0.1,0.8-0.2,1.6-0.3,2.4c0,0.1,0,0.3,0,0.4c16.2-11.9,36.3-18.9,58-18.7c21.2,0.2,40.7,7.1,56.5,18.8h0
		c0.2,0.2,0.4,0.3,0.6,0.5c1,0.8,2,1.5,3,2.3c6,4.8,11.3,10.4,16,16.5c0.7,0.9,1.3,1.8,2,2.7c7,9.8,12.2,21,15.2,33.1
		c1.7-7,2.6-14.3,2.7-21.8C195.4,54.4,166.3,17.1,126.1,5.1z"/>
	<linearGradient id="SVGID_4_" gradientUnits="userSpaceOnUse" x1="42.2725" y1="185.946" x2="186.6524" y2="102.5882">
		<stop  offset="3.572550e-03" style="stop-color:#FFCC22"/>
		<stop  offset="0.6" style="stop-color:#FFCC22"/>
		<stop  offset="1" style="stop-color:#FF9C28"/>
	</linearGradient>
	<path class="st5" d="M177.1,87c-0.6-0.9-1.3-1.8-2-2.7c-4.7-6.1-10-11.6-16-16.5c-1-0.8-2-1.6-3-2.3c-0.2-0.2-0.4-0.3-0.6-0.5
		c0.4,3.5,0.5,7,0.5,10.6c-0.3,39.3-24.6,72.5-58.1,87.7c-0.1,0-0.2,0.1-0.2,0.1c-0.1,0-0.1,0.1-0.2,0.1c-0.1,0.1-0.3,0.1-0.4,0.2
		c-6.8,3-14.1,5-21.7,6.3c-5.5,0.9-11.1,1.4-16.9,1.3c-7.2-0.1-14.3-0.9-21.1-2.5c-2-0.5-4-1-6-1.6c17.2,16.3,40.3,26.5,65.9,26.7
		c25.8,0.2,49.4-9.7,66.8-26c13.6-12.7,23.5-29.2,28-47.9C189.4,108,184.2,96.9,177.1,87z"/>
	<linearGradient id="SVGID_5_" gradientUnits="userSpaceOnUse" x1="92.8341" y1="79.6132" x2="107.9409" y2="121.1189">
		<stop  offset="0" style="stop-color:#5D687A"/>
		<stop  offset="1" style="stop-color:#242A36"/>
	</linearGradient>
	<path class="st6" d="M92.6,105.4v15.9c0,1.1,0.9,2,2,2h7.1c1.1,0,2-0.9,2-2v-15.9c5-2.1,8.5-7.1,8.5-12.8c0-8.3-7.2-14.8-15.6-13.9
		c-6.5,0.7-11.7,6-12.4,12.5C83.6,97.5,87.2,103.1,92.6,105.4z"/>
	<g>
		<defs>
			<path id="SVGID_6_" d="M126.1,5.1c-8.6-2.6-17.7-4-27.1-4.1C89.5,1,80.3,2.3,71.6,4.7c-10.5,9.7-18.8,21.6-24.2,35
				c-2.9,7.1-4.9,14.7-6,22.5c-0.1,0.8-0.2,1.6-0.3,2.4c0,0.1,0,0.3,0,0.4c16.2-11.9,36.3-18.9,58-18.7c21.2,0.2,40.7,7.1,56.5,18.8
				h0c0.2,0.2,0.4,0.3,0.6,0.5c1,0.8,2,1.5,3,2.3c6,4.8,11.3,10.4,16,16.5c0.7,0.9,1.3,1.8,2,2.7c7,9.8,12.2,21,15.2,33.1
				c1.7-7,2.6-14.3,2.7-21.8C195.4,54.4,166.3,17.1,126.1,5.1z"/>
		</defs>
		<clipPath id="SVGID_7_">
			<use xlink:href="#SVGID_6_"  style="overflow:visible;"/>
		</clipPath>
		
			<radialGradient id="SVGID_8_" cx="249.1144" cy="-87.0651" r="60.8834" gradientTransform="matrix(0.9848 -0.1671 0.1669 0.9859 -74.6477 156.8583)" gradientUnits="userSpaceOnUse">
			<stop  offset="0" style="stop-color:#FFFFFF"/>
			<stop  offset="1" style="stop-color:#FFFFFF;stop-opacity:0"/>
		</radialGradient>
		<path class="st7" d="M216.1,19.2c5.6,33.2-16.7,64.6-49.8,70.2c-33.1,5.6-64.5-16.7-70.1-49.9S112.9-25,146-30.6
			S210.5-13.9,216.1,19.2z"/>
	</g>
	<g>
		<defs>
			<path id="SVGID_9_" d="M40.4,74.5c0-3.1,0.2-6.1,0.6-9.2c0-0.1,0-0.2,0-0.3c0-0.1,0-0.3,0-0.4c0.1-0.8,0.2-1.6,0.3-2.4
				c1.1-7.9,3.2-15.4,6-22.5c5.4-13.4,13.8-25.3,24.2-35c-0.1,0-0.2,0.1-0.4,0.1c-0.3,0.1-0.7,0.2-1,0.3C31.2,17.3,2.6,53.3,2,96.3
				c-0.1,8.1,0.8,16,2.6,23.6c4.3,18.4,13.9,34.8,27.1,47.5c1.9,0.6,3.9,1.1,5.9,1.6c6.8,1.6,13.8,2.4,21.1,2.5
				c5.8,0,11.4-0.4,16.9-1.3c7.6-1.3,14.9-3.3,21.7-6.3c0.1-0.1,0.3-0.1,0.4-0.2c0.1,0,0.1-0.1,0.2-0.1c0.1,0,0.2-0.1,0.2-0.1
				C64,147.6,39.9,114,40.4,74.5z"/>
		</defs>
		<clipPath id="SVGID_10_">
			<use xlink:href="#SVGID_9_"  style="overflow:visible;"/>
		</clipPath>
		
			<radialGradient id="SVGID_11_" cx="11.7656" cy="74.4809" r="61.6624" gradientTransform="matrix(1 0 0 1 -0.4777 -0.5323)" gradientUnits="userSpaceOnUse">
			<stop  offset="0" style="stop-color:#FFFFFF"/>
			<stop  offset="1" style="stop-color:#FFFFFF;stop-opacity:0"/>
		</radialGradient>
		<path class="st8" d="M72,63.6c5.7,33.6-16.9,65.4-50.5,71.1s-65.4-16.9-71-50.5S-32.6,18.8,1,13.1S66.4,30.1,72,63.6z"/>
	</g>
	<g>
		<defs>
			<path id="SVGID_12_" d="M177.1,87c-0.6-0.9-1.3-1.8-2-2.7c-4.7-6.1-10-11.6-16-16.5c-1-0.8-2-1.6-3-2.3c-0.2-0.2-0.4-0.3-0.6-0.5
				c0.4,3.5,0.5,7,0.5,10.6c-0.3,39.3-24.6,72.5-58.1,87.7c-0.1,0-0.2,0.1-0.2,0.1c-0.1,0-0.1,0.1-0.2,0.1c-0.1,0.1-0.3,0.1-0.4,0.2
				c-6.8,3-14.1,5-21.7,6.3c-5.5,0.9-11.1,1.4-16.9,1.3c-7.2-0.1-14.3-0.9-21.1-2.5c-2-0.5-4-1-6-1.6c17.2,16.3,40.3,26.5,65.9,26.7
				c25.8,0.2,49.4-9.7,66.8-26c13.6-12.7,23.5-29.2,28-47.9C189.4,108,184.2,96.9,177.1,87z"/>
		</defs>
		<clipPath id="SVGID_13_">
			<use xlink:href="#SVGID_12_"  style="overflow:visible;"/>
		</clipPath>
		
			<radialGradient id="SVGID_14_" cx="202.2183" cy="54.7424" r="60.8834" gradientTransform="matrix(0.9848 -0.1671 0.1669 0.9859 -74.6477 156.8583)" gradientUnits="userSpaceOnUse">
			<stop  offset="0" style="stop-color:#FFFFFF"/>
			<stop  offset="1" style="stop-color:#FFFFFF;stop-opacity:0"/>
		</radialGradient>
		<path class="st9" d="M193.6,166.9c5.6,33.2-16.7,64.6-49.8,70.2c-33.1,5.6-64.5-16.7-70.1-49.9s16.7-64.6,49.8-70.2
			C156.6,111.4,188,133.7,193.6,166.9z"/>
	</g>
</g>
</svg>
