<?xml version="1.0" encoding="utf-8"?>
<!-- Generator: Adobe Illustrator 22.0.1, SVG Export Plug-In . SVG Version: 6.00 Build 0)  -->
<svg version="1.1" id="Layer_1" xmlns="http://www.w3.org/2000/svg" xmlns:xlink="http://www.w3.org/1999/xlink" x="0px" y="0px"
	 viewBox="0 0 234 234.1" style="enable-background:new 0 0 234 234.1;" xml:space="preserve">
<style type="text/css">
	.st0{fill-rule:evenodd;clip-rule:evenodd;fill:#FFFFFF;}
	.st1{fill:#FFFFFF;}
	.st2{fill:url(#SVGID_1_);}
	.st3{fill:url(#SVGID_2_);}
	.st4{fill:url(#SVGID_3_);}
	.st5{fill:url(#SVGID_4_);}
	.st6{fill:url(#SVGID_5_);}
	.st7{opacity:0.17;clip-path:url(#SVGID_7_);fill:url(#SVGID_8_);}
	.st8{opacity:0.2;clip-path:url(#SVGID_10_);fill:url(#SVGID_11_);}
	.st9{opacity:0.3;clip-path:url(#SVGID_13_);fill:url(#SVGID_14_);}
</style>
<symbol  id="map_copy" viewBox="-5 -204 239.7 213.7">
	<g id="Layer_3_7_">
		<path class="st0" d="M106.8,1.5L92.6-23L64.9-42.8l8.9,31.2L62.8-4l8.6,10.4l29.8,3.4L106.8,1.5z M210.7-27.5
			c1.4-1.8,2.9-3.7,4.5-5.6c2.1-3.2,3.9-6.5,5.6-9.6c0.5-1,1.1-2,1.6-3.1c3.7-7,6.6-14.5,8.6-22.3c0.4-1.4,0.8-2.9,1.2-4.4
			c1.1-4.6,1.9-9.5,2.4-14.5c0-0.1,0-0.1,0-0.2v-0.1l-13.5-38.5h-5.8l-2.1,22.5l-12.7-21.2l-10.1,21.2l-12.6,0.8l4.5-6.8l-12-5
			l-21.2,21.1l20-40.9l-13.1-9.6v-12.6l-20.4-23.1l-6,0.9l-6.7,20.9l4.8,6l-13.2,22.9l-13.8-3.6l-17.5,16.6l13.9,22.6l22.8,8.6
			l3-4.9l26.1-3.8l5.5,8l-9.4-2.5l-6.3,9.9l0.3-7.6l-7.1,4.2l-4.1-5.4l-1.5,8.7l-7.4,4.4L106-85.2l-7.1-2.5L98.1-74l5.8-0.5
			l-1.9,6.2l15,7.1l3.3,7.5l7.5-3l11.9,12.4l-4,6.8L128-51.5l-13,9.9l16.9,21.1L146-29l10,6.3l5.2,10L165,1.8l20.7-5.2
			c5.2-3.6,9.8-7.6,14-11.8c2.1-2,4.2-4.1,6.1-6.4C207.5-23.6,209.2-25.6,210.7-27.5z M212.3-129.9l16.4,2.6l-13.5-25L212.3-129.9z
			 M165-75l7.5-10.5l-4.4,21.8L165-75z M204.6-179.2l-14.1-3.8l30.4,25.8C216.3-165.2,210.9-172.6,204.6-179.2z M143.1-74.3l2.7-3.4
			l13.2-1.6l-7.9,9.5L143.1-74.3z M99.6-48.8l5.2,1.9l9.5-13.5H94.8l7.5,8.2L99.6-48.8z M90.8-40.6l-6.6,7.5h17.1L90.8-40.6z
			 M50.7-7.8l-6.4-8.3l9.5,2.9c5,1.8,7.1-0.5,6.4-6.9l-1.6-10.5c-0.4-4.4-2.4-4.7-6-0.9C51.3-30,49.8-29,48-28.4
			c-3.4,1.2-7.3,0.1-11.6-3.5c-4.3-3.4-7.7-7.9-10.2-13.6l8.2-4.1c3.9,9.2,7.7,12.9,11.4,11.1c2.6-1.1,4.2-3.5,4.9-7.2l0.8-11.6
			c0.4-6.9-2.5-11.1-8.9-12.4l-3-1l-22.7-36.8l5.1-19.8l6.9,8.1l12.9-9l6.9-0.8l1.8-6.3l6.3-2.5c8.2-3,12.6-8.8,13.2-17.6l0.2-2.9
			c0.3-6.8-1.8-14.1-6.4-21.9L77.3-204c-27,17.4-43.7,36.8-50.2,58.2l-5.2,18.5L-5-98l1.3,15.2l-0.1,0.1h0.1
			c3.2,23,12.7,43.3,28.4,60.9c3.9,4.5,7.9,8.4,11.9,11.7l13.2,6.7L50.7-7.8z M160-176.6l-5.4,10.1l4.4,9.3l16.5,2.5L160-176.6z
			 M27.1-114.6l-5.9,12l19.5-17.2L27.1-114.6z"/>
	</g>
</symbol>
<circle class="st1" cx="117" cy="117.1" r="106"/>
<linearGradient id="SVGID_1_" gradientUnits="userSpaceOnUse" x1="46.5666" y1="125.9348" x2="186.8492" y2="125.9348">
	<stop  offset="0" style="stop-color:#E6E6E6"/>
	<stop  offset="0.1614" style="stop-color:#F6F6F6"/>
	<stop  offset="0.3" style="stop-color:#FFFFFF"/>
	<stop  offset="0.7" style="stop-color:#FFFFFF"/>
	<stop  offset="0.8386" style="stop-color:#F6F6F6"/>
	<stop  offset="1" style="stop-color:#E6E6E6"/>
</linearGradient>
<path class="st2" d="M46.6,89.1c-0.7,47.9,28.6,88.6,69.8,107.8c40.6-18.4,70.1-58.6,70.5-106.3c0-4.4-0.2-8.6-0.6-12.9h0
	C167,63.6,143.4,55.2,117.7,55C91.4,54.7,67,63.2,47.3,77.7c0,0.1,0,0.2,0,0.3C46.9,81.7,46.6,85.4,46.6,89.1z M55.4,83.8
	c22-15.3,42.8-18.9,53.4-19.6l0,0l0,0c0,0,0.1,0,0.1,0c3.6-0.3,6.2-0.3,7.2-0.3c0.2,0,0.3,0,0.3,0l0.1,0l0.1,0c0,0,0.1,0,0.3,0
	c0.9,0,3.5,0,7.2,0.3c0,0,0.1,0,0.1,0l0.1,0l0.1,0c10.6,0.7,31.4,4.3,53.3,19.6c0.5,5.7,0.9,20.5-4.1,38c-3.8,13-9.9,24.8-18.2,35.1
	c-9.9,12.2-22.9,22.3-38.8,30c-15.8-7.6-28.7-17.6-38.6-29.8c-8.3-10.2-14.4-21.9-18.3-34.9C54.4,104.8,54.9,89.6,55.4,83.8z"/>
<linearGradient id="SVGID_2_" gradientUnits="userSpaceOnUse" x1="91.3732" y1="206.3412" x2="25.632" y2="25.7188">
	<stop  offset="0" style="stop-color:#1B84E2"/>
	<stop  offset="0.35" style="stop-color:#2299FF"/>
	<stop  offset="1" style="stop-color:#00DCFF"/>
</linearGradient>
<path class="st3" d="M46.6,89.1c0.1-3.7,0.3-7.4,0.7-11.1c0-0.1,0-0.2,0-0.3c0-0.2,0-0.3,0.1-0.5c0.1-1,0.2-1.9,0.4-2.9
	c1.3-9.5,3.8-18.7,7.3-27.3c6.6-16.3,16.7-30.7,29.4-42.4c-0.1,0-0.3,0.1-0.4,0.1c-0.4,0.1-0.8,0.3-1.2,0.4
	C35.5,19.7,0.8,63.4,0,115.5c-0.1,9.8,0.9,19.4,3.1,28.6C8.3,166.4,20,186.3,36,201.7c2.3,0.7,4.7,1.4,7.1,1.9
	c8.2,1.9,16.7,3,25.5,3c7,0.1,13.8-0.5,20.5-1.6c9.2-1.5,18-4,26.3-7.7c0.2-0.1,0.3-0.1,0.5-0.2c0.1,0,0.2-0.1,0.3-0.1
	c0.1,0,0.2-0.1,0.3-0.1C75.2,177.7,45.9,137,46.6,89.1z"/>
<linearGradient id="SVGID_3_" gradientUnits="userSpaceOnUse" x1="47.3202" y1="72.2525" x2="233.9897" y2="72.2525">
	<stop  offset="2.237751e-03" style="stop-color:#D61132"/>
	<stop  offset="0.3518" style="stop-color:#EE1144"/>
	<stop  offset="0.9969" style="stop-color:#EE4466"/>
</linearGradient>
<path class="st4" d="M150.5,5c-10.4-3.1-21.4-4.9-32.8-5C106.1,0,95,1.6,84.4,4.6C71.7,16.3,61.6,30.7,55.1,47
	c-3.5,8.6-6,17.8-7.3,27.3c-0.1,1-0.3,1.9-0.4,2.9c0,0.2,0,0.3-0.1,0.5C67,63.2,91.4,54.7,117.7,55c25.7,0.2,49.4,8.7,68.6,22.8h0
	c0.3,0.2,0.5,0.4,0.8,0.6c1.2,0.9,2.4,1.8,3.6,2.8c7.2,5.9,13.7,12.6,19.4,19.9c0.8,1.1,1.6,2.1,2.4,3.2
	c8.5,11.9,14.8,25.5,18.4,40.1c2-8.5,3.2-17.3,3.3-26.4C234.4,64.8,199.1,19.6,150.5,5z"/>
<linearGradient id="SVGID_4_" gradientUnits="userSpaceOnUse" x1="48.8175" y1="224.2542" x2="223.8687" y2="123.1884">
	<stop  offset="3.572550e-03" style="stop-color:#FFCC22"/>
	<stop  offset="0.6" style="stop-color:#FFCC22"/>
	<stop  offset="1" style="stop-color:#FF9C28"/>
</linearGradient>
<path class="st5" d="M212.3,104.3c-0.8-1.1-1.6-2.2-2.4-3.2c-5.7-7.4-12.2-14.1-19.4-19.9c-1.2-1-2.4-1.9-3.6-2.8
	c-0.3-0.2-0.5-0.4-0.8-0.6c0.4,4.2,0.7,8.5,0.6,12.9c-0.4,47.7-29.8,87.9-70.5,106.3c-0.1,0-0.2,0.1-0.3,0.1c-0.1,0-0.2,0.1-0.3,0.1
	c-0.2,0.1-0.3,0.1-0.5,0.2c-8.3,3.6-17.1,6.1-26.3,7.7c-6.6,1.1-13.5,1.7-20.5,1.6c-8.8-0.1-17.3-1.1-25.5-3
	c-2.5-0.6-4.9-1.2-7.3-1.9c20.8,19.8,48.9,32.1,80,32.3c31.3,0.3,59.9-11.8,81-31.6c16.5-15.4,28.5-35.4,33.9-58
	C227.2,129.8,220.8,116.2,212.3,104.3z"/>
<linearGradient id="SVGID_5_" gradientUnits="userSpaceOnUse" x1="110.1201" y1="95.3326" x2="128.4361" y2="145.6556">
	<stop  offset="0" style="stop-color:#5D687A"/>
	<stop  offset="1" style="stop-color:#242A36"/>
</linearGradient>
<path class="st6" d="M109.8,126.6v19.2c0,1.3,1.1,2.4,2.4,2.4h8.7c1.3,0,2.4-1.1,2.4-2.4v-19.2c6-2.6,10.3-8.6,10.3-15.6
	c0-10-8.7-18-18.9-16.9c-7.9,0.9-14.2,7.3-15,15.2C98.9,117.1,103.3,123.8,109.8,126.6z"/>
<g>
	<defs>
		<path id="SVGID_6_" d="M150.5,5c-10.4-3.1-21.4-4.9-32.8-5C106.1,0,95,1.6,84.4,4.6C71.7,16.3,61.6,30.7,55.1,47
			c-3.5,8.6-6,17.8-7.3,27.3c-0.1,1-0.3,1.9-0.4,2.9c0,0.2,0,0.3-0.1,0.5C67,63.2,91.4,54.7,117.7,55c25.7,0.2,49.4,8.7,68.6,22.8h0
			c0.3,0.2,0.5,0.4,0.8,0.6c1.2,0.9,2.4,1.8,3.6,2.8c7.2,5.9,13.7,12.6,19.4,19.9c0.8,1.1,1.6,2.1,2.4,3.2
			c8.5,11.9,14.8,25.5,18.4,40.1c2-8.5,3.2-17.3,3.3-26.4C234.4,64.8,199.1,19.6,150.5,5z"/>
	</defs>
	<clipPath id="SVGID_7_">
		<use xlink:href="#SVGID_6_"  style="overflow:visible;"/>
	</clipPath>
	
		<radialGradient id="SVGID_8_" cx="252.6429" cy="251.6603" r="73.8172" gradientTransform="matrix(0.9848 -0.1671 0.1669 0.9859 -103.911 -171.4641)" gradientUnits="userSpaceOnUse">
		<stop  offset="0" style="stop-color:#FFFFFF"/>
		<stop  offset="1" style="stop-color:#FFFFFF;stop-opacity:0"/>
	</radialGradient>
	<path class="st7" d="M259.6,22.1c6.8,40.2-20.2,78.3-60.4,85.1S121,87,114.2,46.8c-6.8-40.2,20.2-78.3,60.4-85.1
		S252.8-18.1,259.6,22.1z"/>
</g>
<g>
	<defs>
		<path id="SVGID_9_" d="M46.6,89.1c0.1-3.7,0.3-7.4,0.7-11.1c0-0.1,0-0.2,0-0.3c0-0.2,0-0.3,0.1-0.5c0.1-1,0.2-1.9,0.4-2.9
			c1.3-9.5,3.8-18.7,7.3-27.3c6.6-16.3,16.7-30.7,29.4-42.4c-0.1,0-0.3,0.1-0.4,0.1c-0.4,0.1-0.8,0.3-1.2,0.4
			C35.5,19.7,0.8,63.4,0,115.5c-0.1,9.8,0.9,19.4,3.1,28.6C8.3,166.4,20,186.3,36,201.7c2.3,0.7,4.7,1.4,7.1,1.9
			c8.2,1.9,16.7,3,25.5,3c7,0.1,13.8-0.5,20.5-1.6c9.2-1.5,18-4,26.3-7.7c0.2-0.1,0.3-0.1,0.5-0.2c0.1,0,0.2-0.1,0.3-0.1
			c0.1,0,0.2-0.1,0.3-0.1C75.2,177.7,45.9,137,46.6,89.1z"/>
	</defs>
	<clipPath id="SVGID_10_">
		<use xlink:href="#SVGID_9_"  style="overflow:visible;"/>
	</clipPath>
	
		<radialGradient id="SVGID_11_" cx="11.7283" cy="88.9969" r="74.7616" gradientTransform="matrix(1 0 0 1 -0.4777 -0.5323)" gradientUnits="userSpaceOnUse">
		<stop  offset="0" style="stop-color:#FFFFFF"/>
		<stop  offset="1" style="stop-color:#FFFFFF;stop-opacity:0"/>
	</radialGradient>
	<path class="st8" d="M84.9,76c6.9,40.7-20.5,79.3-61.2,86.2c-40.7,6.9-79.2-20.5-86.1-61.2s20.5-79.3,61.2-86.2S78,35.2,84.9,76z"
		/>
</g>
<g>
	<defs>
		<path id="SVGID_12_" d="M212.3,104.3c-0.8-1.1-1.6-2.2-2.4-3.2c-5.7-7.4-12.2-14.1-19.4-19.9c-1.2-1-2.4-1.9-3.6-2.8
			c-0.3-0.2-0.5-0.4-0.8-0.6c0.4,4.2,0.7,8.5,0.6,12.9c-0.4,47.7-29.8,87.9-70.5,106.3c-0.1,0-0.2,0.1-0.3,0.1
			c-0.1,0-0.2,0.1-0.3,0.1c-0.2,0.1-0.3,0.1-0.5,0.2c-8.3,3.6-17.1,6.1-26.3,7.7c-6.6,1.1-13.5,1.7-20.5,1.6
			c-8.8-0.1-17.3-1.1-25.5-3c-2.5-0.6-4.9-1.2-7.3-1.9c20.8,19.8,48.9,32.1,80,32.3c31.3,0.3,59.9-11.8,81-31.6
			c16.5-15.4,28.5-35.4,33.9-58C227.2,129.8,220.8,116.2,212.3,104.3z"/>
	</defs>
	<clipPath id="SVGID_13_">
		<use xlink:href="#SVGID_12_"  style="overflow:visible;"/>
	</clipPath>
	
		<radialGradient id="SVGID_14_" cx="195.7844" cy="423.5927" r="73.8172" gradientTransform="matrix(0.9848 -0.1671 0.1669 0.9859 -103.911 -171.4641)" gradientUnits="userSpaceOnUse">
		<stop  offset="0" style="stop-color:#FFFFFF"/>
		<stop  offset="1" style="stop-color:#FFFFFF;stop-opacity:0"/>
	</radialGradient>
	<path class="st9" d="M232.3,201.1c6.8,40.2-20.2,78.3-60.4,85.1c-40.1,6.8-78.2-20.3-85-60.4c-6.8-40.2,20.2-78.3,60.4-85.1
		C187.4,133.9,225.5,160.9,232.3,201.1z"/>
</g>
</svg>
