<?xml version="1.0" encoding="utf-8"?>
<!-- Generator: Adobe Illustrator 22.0.1, SVG Export Plug-In . SVG Version: 6.00 Build 0)  -->
<svg version="1.1" id="Layer_1" xmlns="http://www.w3.org/2000/svg" xmlns:xlink="http://www.w3.org/1999/xlink" x="0px" y="0px"
	 viewBox="0 0 23 23" style="enable-background:new 0 0 23 23;" xml:space="preserve">
<style type="text/css">
	.st0{fill:url(#SVGID_1_);}
	.st1{fill:url(#SVGID_2_);}
	.st2{fill:url(#SVGID_3_);}
	.st3{fill:url(#SVGID_4_);}
	.st4{fill:url(#SVGID_5_);}
	.st5{fill:url(#SVGID_6_);}
	.st6{fill:url(#SVGID_7_);}
	.st7{fill:url(#SVGID_8_);}
</style>
<g>
	
		<linearGradient id="SVGID_1_" gradientUnits="userSpaceOnUse" x1="-595.8005" y1="367.6911" x2="-596.8221" y2="367.6122" gradientTransform="matrix(11.435 0 0 -13.3747 6835.1177 4933.9995)">
		<stop  offset="0" style="stop-color:#FE6F01"/>
		<stop  offset="0.5591" style="stop-color:#B10014"/>
		<stop  offset="1" style="stop-color:#B41D27"/>
	</linearGradient>
	<path class="st0" d="M10.6,22.3v-0.7l1.6,0l-0.1,0.8c0,0.3-0.3,0.6-0.6,0.6h-0.3C10.9,23,10.6,22.7,10.6,22.3z M21.4,9.6
		c0.3-0.1,0.6,0.1,0.7,0.4c0,0,0,0.1,0,0.1l0,0.7l0,0.6l0,1.6l0,9.3c0,0.4-0.3,0.7-0.7,0.7h-0.2c-0.4,0-0.6-0.3-0.7-0.6
		c-0.1-0.9-0.2-2.4-0.2-3.1c0-0.1-0.1-0.1-0.1,0l-0.2,3.1c0,0.3-0.3,0.6-0.7,0.6h-0.6c-0.3,0-0.6-0.3-0.6-0.6l-0.2-3.1
		c0-0.1-0.1-0.1-0.1,0l-0.3,3.1c0,0.3-0.3,0.6-0.6,0.6H16c-0.3,0-0.6-0.3-0.6-0.6l-0.2-3.1c0-0.1-0.1-0.1-0.1,0l-0.3,3.1
		c0,0.3-0.3,0.6-0.6,0.6h-0.6c-0.3,0-0.6-0.3-0.6-0.6l-0.1-0.8l0.8,0c0.3,0,0.6-0.2,0.6-0.5c0,0,0-0.1,0-0.1l-2.1-8.6l-0.1-0.4
		C11.9,11.9,21.4,9.6,21.4,9.6z"/>
	
		<linearGradient id="SVGID_2_" gradientUnits="userSpaceOnUse" x1="-607.4018" y1="363.3358" x2="-607.3013" y2="362.4496" gradientTransform="matrix(14.1573 0 0 -11.417 8604.8887 4159.3423)">
		<stop  offset="0" style="stop-color:#7CB53A"/>
		<stop  offset="0.7481" style="stop-color:#398336"/>
		<stop  offset="1" style="stop-color:#3E8B3B"/>
	</linearGradient>
	<path class="st1" d="M12.1,12.3l-0.1-0.4l-0.2-0.8l-0.1-0.2l-9.9-0.1c-0.4,0-0.7-0.3-0.7-0.7H0.7c-0.4,0-0.7,0.3-0.7,0.7v0.3
		c0,0.3,0.3,0.6,0.6,0.6L3.7,12c0.1,0,0.1,0.1,0,0.1l-3.1,0.2C0.3,12.4,0,12.7,0,13v0.6c0,0.3,0.3,0.6,0.6,0.6l3.1,0.3
		c0.1,0,0.1,0.1,0,0.1L0.6,15C0.3,15,0,15.3,0,15.6v0.6c0,0.3,0.3,0.6,0.6,0.6l3.1,0.3c0.1,0,0.1,0.1,0,0.1l-3.1,0.2
		c-0.3,0-0.6,0.3-0.6,0.6v0.6c0,0.3,0.3,0.6,0.6,0.7l3.1,0.2c0.1,0,0.1,0.1,0,0.1c-0.6,0-2.2,0.2-3.1,0.2C0.3,20,0,20.3,0,20.7v0.2
		c0,0.4,0.3,0.7,0.7,0.7l10,0l1.6,0l0.5,0l0.8,0c0.3,0,0.6-0.2,0.6-0.5c0,0,0-0.1,0-0.1L12.1,12.3L12.1,12.3z"/>
	
		<linearGradient id="SVGID_3_" gradientUnits="userSpaceOnUse" x1="-597.4688" y1="361.9177" x2="-597.3483" y2="360.9177" gradientTransform="matrix(11.66 0 0 -10.917 6972.7969 3951.1448)">
		<stop  offset="0" style="stop-color:#FFC832"/>
		<stop  offset="0.7193" style="stop-color:#EB702A"/>
		<stop  offset="0.8099" style="stop-color:#E9742C"/>
		<stop  offset="0.9094" style="stop-color:#E58032"/>
		<stop  offset="1" style="stop-color:#DE923B"/>
	</linearGradient>
	<path class="st2" d="M12.2,0c0.4,0,0.7,0.3,0.7,0.7v1l-1.7,0l0.1-1c0-0.3,0.3-0.6,0.6-0.6H12.2L12.2,0z M9.6,2.3l2.1,8.6l0,0
		l-9.8-0.1c-0.4,0-0.7-0.3-0.7-0.7l0.1-9.5C1.2,0.3,1.5,0,1.9,0h0.2c0.4,0,0.7,0.3,0.7,0.6C2.9,1.5,3,3.1,3,3.7c0,0.1,0.1,0.1,0.1,0
		l0.2-3.1C3.4,0.3,3.7,0,4.1,0h0.6c0.3,0,0.6,0.3,0.6,0.6l0.2,3.1c0,0.1,0.1,0.1,0.1,0L6,0.6C6.1,0.3,6.3,0,6.7,0h0.7
		C7.7,0,7.9,0.3,8,0.6l0.2,3.1c0,0.1,0.1,0.1,0.1,0l0.3-3.1C8.7,0.3,8.9,0,9.3,0h0.7c0.3,0,0.6,0.3,0.6,0.6l0.1,1l-0.5,0
		c-0.3,0-0.5,0.2-0.5,0.6C9.6,2.2,9.6,2.2,9.6,2.3L9.6,2.3z"/>
	
		<linearGradient id="SVGID_4_" gradientUnits="userSpaceOnUse" x1="-604.1119" y1="362.4967" x2="-605.1119" y2="363.4774" gradientTransform="matrix(13.3925 0 0 -11.419 8114.2451 4151.5215)">
		<stop  offset="0" style="stop-color:#43BFDD"/>
		<stop  offset="1" style="stop-color:#004E88"/>
	</linearGradient>
	<path class="st3" d="M22.4,11.5c0.3,0,0.6,0.3,0.6,0.6v0.3c0,0.4-0.3,0.7-0.7,0.7h-0.3l0-1.6C22.1,11.4,22.4,11.5,22.4,11.5z
		 M19.3,3.4c-0.1,0-0.1,0.1,0,0.1l3.1,0.2c0.3,0,0.6,0.3,0.6,0.7v0.6c0,0.3-0.3,0.6-0.6,0.6L19.3,6c-0.1,0-0.1,0.1,0,0.1l3.1,0.3
		C22.7,6.4,23,6.7,23,7v0.6c0,0.3-0.3,0.6-0.6,0.6l-3.1,0.2c-0.1,0-0.1,0.1,0,0.1l3.1,0.3c0.3,0,0.6,0.3,0.6,0.6v0.6
		c0,0.3-0.3,0.6-0.6,0.6l-0.3,0l0-0.7c0-0.3-0.2-0.5-0.6-0.5c0,0-0.1,0-0.1,0l-9.4,2.3l-0.2-0.8l-0.1-0.2l0,0L9.6,2.3
		C9.5,2,9.7,1.7,10,1.6c0,0,0.1,0,0.1,0l0.5,0l0.5,0l1.7,0l9.5,0C22.7,1.7,23,2,23,2.3v0.2c0,0.3-0.3,0.6-0.6,0.7
		C21.5,3.3,19.9,3.4,19.3,3.4z"/>
	
		<linearGradient id="SVGID_5_" gradientUnits="userSpaceOnUse" x1="-439.5067" y1="361.6721" x2="-440.5067" y2="362.3372" gradientTransform="matrix(3.061 0 0 -11.132 1359.8398 4048.1274)">
		<stop  offset="0" style="stop-color:#000000;stop-opacity:0"/>
		<stop  offset="1" style="stop-color:#730000;stop-opacity:0.5"/>
	</linearGradient>
	<path class="st4" d="M11.9,11.9l0.1,0.4l2.1,8.6c0.1,0.3-0.1,0.6-0.4,0.7c0,0-0.1,0-0.1,0l-0.8,0l0.1,0.8c0,0.3,0.3,0.6,0.6,0.6
		h0.6c0.3,0,0.6-0.3,0.6-0.6l0.3-3.1l-2.8-7.5L11.9,11.9L11.9,11.9z"/>
	
		<linearGradient id="SVGID_6_" gradientUnits="userSpaceOnUse" x1="-440.2621" y1="361.8178" x2="-439.2621" y2="361.1513" gradientTransform="matrix(3.062 0 0 -10.917 1357.1775 3951.1494)">
		<stop  offset="0" style="stop-color:#EA410C;stop-opacity:0"/>
		<stop  offset="1" style="stop-color:#A50000;stop-opacity:0.5"/>
	</linearGradient>
	<path class="st5" d="M11.7,10.9L11.7,10.9L9.6,2.3C9.5,2,9.7,1.7,10,1.6c0,0,0.1,0,0.1,0l0.5,0l-0.1-1c0-0.3-0.3-0.6-0.6-0.6H9.3
		C8.9,0,8.7,0.3,8.6,0.6l0,3.1l2.8,7.3L11.7,10.9L11.7,10.9z"/>
	
		<linearGradient id="SVGID_7_" gradientUnits="userSpaceOnUse" x1="-594.098" y1="271.972" x2="-594.7686" y2="270.972" gradientTransform="matrix(11.084 0 0 -3.003 6606.8135 826.1003)">
		<stop  offset="0" style="stop-color:#003EC2;stop-opacity:0"/>
		<stop  offset="1" style="stop-color:#001C90;stop-opacity:0.5"/>
	</linearGradient>
	<path class="st6" d="M11.9,11.9l9.4-2.3c0.3-0.1,0.6,0.1,0.7,0.4c0,0,0,0.1,0,0.1l0,0.7l0.3,0c0.3,0,0.6-0.3,0.6-0.6V9.5
		c0-0.3-0.3-0.6-0.6-0.6l-3.1,0l-7.4,2.7C11.9,11.7,11.9,11.9,11.9,11.9z"/>
	
		<linearGradient id="SVGID_8_" gradientUnits="userSpaceOnUse" x1="-598.394" y1="189.7716" x2="-597.6994" y2="190.3938" gradientTransform="matrix(11.77 0 0 -1.81 7043.5684 354.9697)">
		<stop  offset="0" style="stop-color:#579938;stop-opacity:0"/>
		<stop  offset="1" style="stop-color:#0C1F03;stop-opacity:0.5"/>
	</linearGradient>
	<path class="st7" d="M11.7,10.9l-9.8-0.1c-0.4,0-0.7-0.3-0.7-0.7H0.7c-0.4,0-0.7,0.3-0.7,0.7v0.3c0,0.3,0.3,0.6,0.6,0.6L3.7,12
		l8.1-0.8L11.7,10.9L11.7,10.9z"/>
</g>
</svg>
