<?xml version="1.0" encoding="utf-8"?>
<!-- Generator: Adobe Illustrator 22.0.1, SVG Export Plug-In . SVG Version: 6.00 Build 0)  -->
<svg version="1.1" id="Layer_1" xmlns="http://www.w3.org/2000/svg" xmlns:xlink="http://www.w3.org/1999/xlink" x="0px" y="0px"
	 viewBox="0 0 23 23" style="enable-background:new 0 0 23 23;" xml:space="preserve">
<style type="text/css">
	.st0{fill:url(#SVGID_1_);}
	.st1{fill:url(#SVGID_2_);}
	.st2{fill:url(#SVGID_3_);}
	.st3{fill:url(#SVGID_4_);}
</style>
<g>
	
		<linearGradient id="SVGID_1_" gradientUnits="userSpaceOnUse" x1="-1820.4436" y1="312.0724" x2="-1821.4662" y2="311.9934" gradientTransform="matrix(11.435 0 0 -13.3747 20838.8887 4189.9995)">
		<stop  offset="0" style="stop-color:#FE6F01"/>
		<stop  offset="0.5591" style="stop-color:#B10014"/>
		<stop  offset="1" style="stop-color:#B41D27"/>
	</linearGradient>
	<path class="st0" d="M10.5,22.3v-0.7h1.6L12,22.4c0,0.3-0.3,0.6-0.6,0.6h-0.3C10.8,23,10.5,22.7,10.5,22.3z M21.3,9.4
		c0.3-0.1,0.6,0.1,0.7,0.4v0.1v0.7v0.6v1.6v9.4c0,0.4-0.3,0.7-0.7,0.7h-0.2c-0.4,0-0.6-0.3-0.7-0.6c-0.1-0.9-0.2-2.4-0.2-3.1
		c0-0.1-0.1-0.1-0.1,0l-0.2,3.1c0,0.3-0.3,0.6-0.7,0.6h-0.6c-0.3,0-0.6-0.3-0.6-0.6l-0.2-3.1c0-0.1-0.1-0.1-0.1,0l-0.3,3.1
		c0,0.3-0.3,0.6-0.6,0.6h-0.9c-0.3,0-0.6-0.3-0.6-0.6l-0.2-3.1c0-0.1-0.1-0.1-0.1,0l-0.3,3.1c0,0.3-0.3,0.6-0.6,0.6h-0.6
		c-0.3,0-0.6-0.3-0.6-0.6l-0.1-0.8h0.8c0.3,0,0.6-0.2,0.6-0.5V21l-2.1-8.7L12,11.8C11.8,11.7,21.3,9.4,21.3,9.4z"/>
	
		<linearGradient id="SVGID_2_" gradientUnits="userSpaceOnUse" x1="-1854.61" y1="298.1698" x2="-1854.5094" y2="297.2836" gradientTransform="matrix(14.1573 0 0 -11.417 26261.9863 3415.3423)">
		<stop  offset="0" style="stop-color:#7CB53A"/>
		<stop  offset="0.7481" style="stop-color:#398336"/>
		<stop  offset="1" style="stop-color:#3E8B3B"/>
	</linearGradient>
	<path class="st1" d="M12.1,12.3L12,11.9l-0.2-0.8l-0.1-0.2l-9.9-0.1c-0.4,0-0.7-0.3-0.7-0.7H0.7c-0.4,0-0.7,0.3-0.7,0.7v0.3
		c0,0.3,0.3,0.6,0.6,0.6L3.7,12c0.1,0,0.1,0.1,0,0.1l-3.1,0.2C0.3,12.4,0,12.7,0,13v0.6c0,0.3,0.3,0.6,0.6,0.6l3.1,0.3
		c0.1,0,0.1,0.1,0,0.1L0.6,15C0.3,15,0,15.3,0,15.6v0.6c0,0.3,0.3,0.6,0.6,0.6l3.1,0.3c0.1,0,0.1,0.1,0,0.1l-3.1,0.2
		C0.3,17.4,0,17.7,0,18v0.6c0,0.3,0.3,0.6,0.6,0.7l3.1,0.2c0.1,0,0.1,0.1,0,0.1c-0.6,0-2.2,0.2-3.1,0.2C0.3,20,0,20.3,0,20.7v0.2
		c0,0.4,0.3,0.7,0.7,0.7h10h1.6h0.5h0.8c0.3,0,0.6-0.2,0.6-0.5V21L12.1,12.3L12.1,12.3z"/>
	
		<linearGradient id="SVGID_3_" gradientUnits="userSpaceOnUse" x1="-1824.3698" y1="293.7677" x2="-1824.2493" y2="292.7677" gradientTransform="matrix(11.66 0 0 -10.917 21278.5176 3207.1448)">
		<stop  offset="0" style="stop-color:#FFC832"/>
		<stop  offset="0.7193" style="stop-color:#EB702A"/>
		<stop  offset="0.8099" style="stop-color:#E9742C"/>
		<stop  offset="0.9094" style="stop-color:#E58032"/>
		<stop  offset="1" style="stop-color:#DE923B"/>
	</linearGradient>
	<path class="st2" d="M12.2,0c0.4,0,0.7,0.3,0.7,0.7v1h-1.7l0.1-1c0-0.3,0.3-0.6,0.6-0.6h0.3C12.2,0.1,12.2,0,12.2,0z M9.6,2.3
		l2.1,8.6l0,0l-9.8-0.1c-0.4,0-0.7-0.3-0.7-0.7l0.1-9.5C1.2,0.3,1.5,0,1.9,0h0.2c0.4,0,0.7,0.3,0.7,0.6C2.9,1.5,3,3.1,3,3.7
		c0,0.1,0.1,0.1,0.1,0l0.2-3.1C3.4,0.3,3.7,0,4.1,0h0.6C5,0,5.3,0.3,5.3,0.6l0.2,3.1c0,0.1,0.1,0.1,0.1,0L6,0.6C6.1,0.3,6.3,0,6.7,0
		h0.7C7.7,0,7.9,0.3,8,0.6l0.2,3.1c0,0.1,0.1,0.1,0.1,0l0.3-3.1C8.7,0.3,8.9,0,9.3,0H10c0.3,0,0.6,0.3,0.6,0.6l0.1,1h-0.5
		c-0.3,0-0.5,0.2-0.5,0.6C9.6,2.2,9.6,2.2,9.6,2.3L9.6,2.3z"/>
	
		<linearGradient id="SVGID_4_" gradientUnits="userSpaceOnUse" x1="-1845.9005" y1="297.3483" x2="-1846.9005" y2="298.329" gradientTransform="matrix(13.3925 0 0 -11.419 24744.9805 3407.5215)">
		<stop  offset="0" style="stop-color:#43BFDD"/>
		<stop  offset="1" style="stop-color:#004E88"/>
	</linearGradient>
	<path class="st3" d="M22.4,11.5c0.3,0,0.6,0.3,0.6,0.6v0.3c0,0.4-0.3,0.7-0.7,0.7H22v-1.6C22.1,11.4,22.4,11.5,22.4,11.5z
		 M19.3,3.4C19.2,3.4,19.2,3.5,19.3,3.4l3.1,0.3C22.7,3.7,23,4,23,4.4V5c0,0.3-0.3,0.6-0.6,0.6L19.3,6c-0.1,0-0.1,0.1,0,0.1l3.1,0.3
		C22.7,6.4,23,6.7,23,7v0.6c0,0.3-0.3,0.6-0.6,0.6l-3.1,0.2c-0.1,0-0.1,0.1,0,0.1l3.1,0.3c0.3,0,0.6,0.3,0.6,0.6V10
		c0,0.3-0.3,0.6-0.6,0.6h-0.3V9.9c0-0.3-0.2-0.5-0.6-0.5h-0.1L12,11.7l-0.2-0.8l-0.1-0.2l0,0L9.6,2.3C9.5,2,9.7,1.7,10,1.6h0.1h0.5
		h0.5h1.7h9.5C22.7,1.7,23,2,23,2.3v0.2c0,0.3-0.3,0.6-0.6,0.7C21.5,3.3,19.9,3.4,19.3,3.4z"/>
</g>
</svg>
