<?xml version="1.0" encoding="utf-8"?>
<!-- Generator: Adobe Illustrator 22.0.1, SVG Export Plug-In . SVG Version: 6.00 Build 0)  -->
<svg version="1.1" id="Layer_1" xmlns="http://www.w3.org/2000/svg" xmlns:xlink="http://www.w3.org/1999/xlink" x="0px" y="0px"
	 viewBox="0 0 256 256" style="enable-background:new 0 0 256 256;" xml:space="preserve">
<style type="text/css">
	.st0{fill-rule:evenodd;clip-rule:evenodd;fill:#FFFFFF;}
	.st1{fill:#FFFFFF;}
	.st2{fill:url(#SVGID_1_);}
	.st3{fill:url(#SVGID_2_);}
	.st4{fill:url(#SVGID_3_);}
	.st5{fill:url(#SVGID_4_);}
	.st6{fill:url(#SVGID_5_);}
	.st7{opacity:5.000000e-02;fill:url(#SVGID_6_);}
	.st8{opacity:0.38;clip-path:url(#SVGID_8_);fill:url(#SVGID_9_);}
	.st9{opacity:0.17;clip-path:url(#SVGID_8_);fill:url(#SVGID_10_);}
	.st10{opacity:0.2;clip-path:url(#SVGID_8_);fill:url(#SVGID_11_);}
</style>
<symbol  id="map_copy" viewBox="-5 -204 239.7 213.7">
	<g id="Layer_3_7_">
		<path class="st0" d="M106.8,1.5L92.6-23L64.9-42.8l8.9,31.2L62.8-4l8.6,10.4l29.8,3.4L106.8,1.5z M210.7-27.5
			c1.4-1.8,2.9-3.7,4.5-5.6c2.1-3.2,3.9-6.5,5.6-9.6c0.5-1,1.1-2,1.6-3.1c3.7-7,6.6-14.5,8.6-22.3c0.4-1.4,0.8-2.9,1.2-4.4
			c1.1-4.6,1.9-9.5,2.4-14.5c0-0.1,0-0.1,0-0.2v-0.1l-13.5-38.5h-5.8l-2.1,22.5l-12.7-21.2l-10.1,21.2l-12.6,0.8l4.5-6.8l-12-5
			l-21.2,21.1l20-40.9l-13.1-9.6v-12.6l-20.4-23.1l-6,0.9l-6.7,20.9l4.8,6l-13.2,22.9l-13.8-3.6l-17.5,16.6l13.9,22.6l22.8,8.6
			l3-4.9l26.1-3.8l5.5,8l-9.4-2.5l-6.3,9.9l0.3-7.6l-7.1,4.2l-4.1-5.4l-1.5,8.7l-7.4,4.4L106-85.2l-7.1-2.5L98.1-74l5.8-0.5
			l-1.9,6.2l15,7.1l3.3,7.5l7.5-3l11.9,12.4l-4,6.8L128-51.5l-13,9.9l16.9,21.1L146-29l10,6.3l5.2,10L165,1.8l20.7-5.2
			c5.2-3.6,9.8-7.6,14-11.8c2.1-2,4.2-4.1,6.1-6.4C207.5-23.6,209.2-25.6,210.7-27.5z M212.3-129.9l16.4,2.6l-13.5-25L212.3-129.9z
			 M165-75l7.5-10.5l-4.4,21.8L165-75z M204.6-179.2l-14.1-3.8l30.4,25.8C216.3-165.2,210.9-172.6,204.6-179.2z M143.1-74.3l2.7-3.4
			l13.2-1.6l-7.9,9.5L143.1-74.3z M99.6-48.8l5.2,1.9l9.5-13.5H94.8l7.5,8.2L99.6-48.8z M90.8-40.6l-6.6,7.5h17.1L90.8-40.6z
			 M50.7-7.8l-6.4-8.3l9.5,2.9c5,1.8,7.1-0.5,6.4-6.9l-1.6-10.5c-0.4-4.4-2.4-4.7-6-0.9C51.3-30,49.8-29,48-28.4
			c-3.4,1.2-7.3,0.1-11.6-3.5c-4.3-3.4-7.7-7.9-10.2-13.6l8.2-4.1c3.9,9.2,7.7,12.9,11.4,11.1c2.6-1.1,4.2-3.5,4.9-7.2l0.8-11.6
			c0.4-6.9-2.5-11.1-8.9-12.4l-3-1l-22.7-36.8l5.1-19.8l6.9,8.1l12.9-9l6.9-0.8l1.8-6.3l6.3-2.5c8.2-3,12.6-8.8,13.2-17.6l0.2-2.9
			c0.3-6.8-1.8-14.1-6.4-21.9L77.3-204c-27,17.4-43.7,36.8-50.2,58.2l-5.2,18.5L-5-98l1.3,15.2l-0.1,0.1h0.1
			c3.2,23,12.7,43.3,28.4,60.9c3.9,4.5,7.9,8.4,11.9,11.7l13.2,6.7L50.7-7.8z M160-176.6l-5.4,10.1l4.4,9.3l16.5,2.5L160-176.6z
			 M27.1-114.6l-5.9,12l19.5-17.2L27.1-114.6z"/>
	</g>
</symbol>
<g id="Vector_Smart_Object">
</g>
<g>
	<g>
		<path class="st1" d="M208.2,85.4c-28.9-20.1-56.6-24.8-71.2-25.7c0,0-0.1,0-0.1,0c-6-0.4-9.9-0.4-9.9-0.4s-3.8-0.1-9.9,0.4
			c0,0,0,0-0.1,0c-14.6,1-42.3,5.6-71.3,25.7c0,0-13.8,88.7,81.3,130.3l0,0C222.2,174.1,208.2,85.4,208.2,85.4z"/>
		<linearGradient id="SVGID_1_" gradientUnits="userSpaceOnUse" x1="49.7338" y1="137.4294" x2="205.2368" y2="137.4294">
			<stop  offset="0" style="stop-color:#E6E6E6"/>
			<stop  offset="0.1614" style="stop-color:#F6F6F6"/>
			<stop  offset="0.3" style="stop-color:#FFFFFF"/>
			<stop  offset="0.7" style="stop-color:#FFFFFF"/>
			<stop  offset="0.8386" style="stop-color:#F6F6F6"/>
			<stop  offset="1" style="stop-color:#E6E6E6"/>
		</linearGradient>
		<path class="st2" d="M128,69.8c1,0,3.9,0,7.9,0.3c0,0,0.1,0,0.1,0l0.1,0l0.1,0c11.6,0.8,34.4,4.7,58.4,21.5
			c0.5,6.2,1,22.5-4.5,41.6c-4.2,14.3-10.9,27.2-19.9,38.4c-10.8,13.4-25.1,24.4-42.5,32.8C110.2,196,96,185,85.2,171.8
			c-9.1-11.1-15.8-24-20-38.1c-5.7-19.2-5.2-35.8-4.7-42.1c24-16.8,46.8-20.6,58.4-21.5l0,0l0,0c0,0,0.1,0,0.1,0
			c4-0.3,6.8-0.3,7.9-0.3c0.2,0,0.3,0,0.4,0l0.1,0l0.1,0C127.6,69.8,127.7,69.8,128,69.8 M128,59.2c-0.3,0-0.5,0-0.5,0s-0.2,0-0.5,0
			c-1.2,0-4.4,0-8.9,0.4c0,0,0,0-0.1,0c-13.8,1-40.2,5.6-67.6,25.7c0,0-13.2,88.7,77.1,130.3h0c90.3-41.6,77.1-130.3,77.1-130.3
			c-27.4-20-53.7-24.7-67.6-25.7c0,0-0.1,0-0.1,0C132.4,59.3,129.2,59.2,128,59.2L128,59.2z"/>
		<linearGradient id="SVGID_2_" gradientUnits="userSpaceOnUse" x1="114.5516" y1="159.192" x2="134.5889" y2="104.14">
			<stop  offset="0" style="stop-color:#2D364C"/>
			<stop  offset="1" style="stop-color:#4E5D85"/>
		</linearGradient>
		<path class="st3" d="M146.1,121.3c0-10.9-9.5-19.7-20.7-18.4c-8.6,1-15.6,8-16.4,16.6c-0.8,8.4,4,15.8,11.2,18.9v21
			c0,1.4,1.2,2.6,2.6,2.6h9.5c1.4,0,2.6-1.2,2.6-2.6v-21C141.5,135.5,146.1,129,146.1,121.3z"/>
		<linearGradient id="SVGID_3_" gradientUnits="userSpaceOnUse" x1="52.318" y1="66.5911" x2="260.2567" y2="84.7834">
			<stop  offset="0" style="stop-color:#5E29DD"/>
			<stop  offset="3.004808e-02" style="stop-color:#5D2BDE"/>
			<stop  offset="0.3532" style="stop-color:#8050FF"/>
			<stop  offset="1" style="stop-color:#8050FF"/>
		</linearGradient>
		<path class="st4" d="M164.6,5.3c-11.4-3.4-23.4-5.3-35.9-5.4c-13.3-0.1-26,1.8-38.1,5.4C76.9,18.2,66,34,58.9,51.8
			c-4.2,10.6-7,22-8.3,33.8C72.4,69.3,99.5,59.7,128.7,60c28.1,0.2,54,9.5,75,24.9c9.8,7.2,18.6,15.9,26,25.5
			c10.6,13.9,18.5,30,22.7,47.4c2.2-9.3,3.5-19,3.6-28.9C256.5,70.7,217.9,21.3,164.6,5.3"/>
		
			<linearGradient id="SVGID_4_" gradientUnits="userSpaceOnUse" x1="53.8663" y1="33.1797" x2="74.403" y2="251.9249" gradientTransform="matrix(1 6.343321e-03 -6.343321e-03 1 -4.0707 -24.9643)">
			<stop  offset="0" style="stop-color:#FF7800"/>
			<stop  offset="0.6" style="stop-color:#FF7800"/>
			<stop  offset="0.764" style="stop-color:#FC6F00"/>
			<stop  offset="1" style="stop-color:#F55A00"/>
		</linearGradient>
		<path class="st5" d="M51,97.3c0.1-4.1,0.3-8.1,0.8-12.1c1.3-11.9,4.2-23.3,8.5-33.9c7.2-17.8,18.3-33.6,32.2-46.5
			C39.7,20.3,0.9,68.5,0,126.2c-0.2,10.8,1,21.2,3.4,31.3c5.7,24.4,18.4,46.1,35.9,63c11.4,3.5,23.5,5.5,36,5.7
			c7.7,0.1,15.2-0.5,22.5-1.6c10.1-1.6,22.1-5,30.4-8.8C82.7,194.9,50.2,150.1,51,97.3"/>
		<linearGradient id="SVGID_5_" gradientUnits="userSpaceOnUse" x1="241.9573" y1="124.7986" x2="75.8307" y2="264.1953">
			<stop  offset="1.782853e-03" style="stop-color:#F3AA0B"/>
			<stop  offset="0.4" style="stop-color:#F1C80B"/>
			<stop  offset="1" style="stop-color:#F1C80B"/>
		</linearGradient>
		<path class="st6" d="M229.7,110.4c-7.4-9.7-16.1-18.3-26-25.5c0.5,4.6,0.7,9.3,0.7,14.1c-0.4,52.6-33.2,97-78.2,116.8
			c-9,4-18.7,6.7-28.8,8.4c-7.3,1.2-14.8,1.8-22.4,1.8c-12.5-0.1-24.5-2-35.9-5.4c22.8,21.7,53.5,35.1,87.5,35.4
			c34.3,0.3,65.5-12.9,88.7-34.5c18-16.8,31.1-38.7,37.1-63.5C248.2,140.4,240.3,124.3,229.7,110.4"/>
		
			<radialGradient id="SVGID_6_" cx="1385.6851" cy="300.9867" r="49.525" gradientTransform="matrix(1.554 0 0 1.1077 -2027.6971 -253.1906)" gradientUnits="userSpaceOnUse">
			<stop  offset="0" style="stop-color:#FFFFFF"/>
			<stop  offset="1" style="stop-color:#FFFFFF;stop-opacity:0"/>
		</radialGradient>
		<ellipse class="st7" cx="125.7" cy="80.2" rx="77" ry="54.9"/>
	</g>
	<g>
		<defs>
			
				<ellipse id="SVGID_7_" transform="matrix(1 -6.269954e-03 6.269954e-03 1 -0.8 0.8041)" cx="127.8" cy="128" rx="127.8" ry="128"/>
		</defs>
		<clipPath id="SVGID_8_">
			<use xlink:href="#SVGID_7_"  style="overflow:visible;"/>
		</clipPath>
		
			<radialGradient id="SVGID_9_" cx="-121.5013" cy="368.5299" r="80.7573" gradientTransform="matrix(0.9848 -0.1671 0.1669 0.9859 232.7495 -150.2681)" gradientUnits="userSpaceOnUse">
			<stop  offset="0" style="stop-color:#FFFFFF"/>
			<stop  offset="1" style="stop-color:#FFFFFF;stop-opacity:0"/>
		</radialGradient>
		<path class="st8" d="M254.1,219.9c7.4,44-22.1,85.7-66.1,93.1c-43.9,7.5-85.6-22.2-93-66.1c-7.4-44,22.1-85.7,66.1-93.1
			S246.7,175.9,254.1,219.9z"/>
		
			<radialGradient id="SVGID_10_" cx="-59.2972" cy="180.4329" r="80.7573" gradientTransform="matrix(0.9848 -0.1671 0.1669 0.9859 232.7495 -150.2681)" gradientUnits="userSpaceOnUse">
			<stop  offset="0" style="stop-color:#FFFFFF"/>
			<stop  offset="1" style="stop-color:#FFFFFF;stop-opacity:0"/>
		</radialGradient>
		<path class="st9" d="M284,24c7.4,44-22.1,85.7-66.1,93.1c-43.9,7.5-85.6-22.2-93-66.1c-7.4-44,22.1-85.7,66.1-93.1
			S276.5-19.9,284,24z"/>
		
			<radialGradient id="SVGID_11_" cx="-258.8364" cy="206.5551" r="81.8263" gradientTransform="matrix(0.9848 -0.1671 0.1669 0.9859 232.7495 -150.2681)" gradientUnits="userSpaceOnUse">
			<stop  offset="0" style="stop-color:#FFFFFF"/>
			<stop  offset="1" style="stop-color:#FFFFFF;stop-opacity:0"/>
		</radialGradient>
		<path class="st10" d="M92.9,83c7.5,44.6-22.4,86.8-66.9,94.3c-44.5,7.5-86.7-22.5-94.2-67s22.4-86.8,66.9-94.3S85.4,38.4,92.9,83z
			"/>
	</g>
</g>
</svg>
