<?xml version="1.0" encoding="utf-8"?>
<!-- Generator: Adobe Illustrator 22.0.1, SVG Export Plug-In . SVG Version: 6.00 Build 0)  -->
<svg version="1.1" id="Layer_1" xmlns="http://www.w3.org/2000/svg" xmlns:xlink="http://www.w3.org/1999/xlink" x="0px" y="0px"
	 viewBox="0 0 256 256" style="enable-background:new 0 0 256 256;" xml:space="preserve">
<style type="text/css">
	.st0{fill-rule:evenodd;clip-rule:evenodd;fill:#FFFFFF;}
</style>
<symbol  id="map_copy" viewBox="-5 -204 239.7 213.7">
	<g id="Layer_3_7_">
		<path class="st0" d="M106.8,1.5L92.6-23L64.9-42.8l8.9,31.2L62.8-4l8.6,10.4l29.8,3.4L106.8,1.5z M210.7-27.5
			c1.4-1.8,2.9-3.7,4.5-5.6c2.1-3.2,3.9-6.5,5.6-9.6c0.5-1,1.1-2,1.6-3.1c3.7-7,6.6-14.5,8.6-22.3c0.4-1.4,0.8-2.9,1.2-4.4
			c1.1-4.6,1.9-9.5,2.4-14.5c0-0.1,0-0.1,0-0.2v-0.1l-13.5-38.5h-5.8l-2.1,22.5l-12.7-21.2l-10.1,21.2l-12.6,0.8l4.5-6.8l-12-5
			l-21.2,21.1l20-40.9l-13.1-9.6v-12.6l-20.4-23.1l-6,0.9l-6.7,20.9l4.8,6l-13.2,22.9l-13.8-3.6l-17.5,16.6l13.9,22.6l22.8,8.6
			l3-4.9l26.1-3.8l5.5,8l-9.4-2.5l-6.3,9.9l0.3-7.6l-7.1,4.2l-4.1-5.4l-1.5,8.7l-7.4,4.4L106-85.2l-7.1-2.5L98.1-74l5.8-0.5
			l-1.9,6.2l15,7.1l3.3,7.5l7.5-3l11.9,12.4l-4,6.8L128-51.5l-13,9.9l16.9,21.1L146-29l10,6.3l5.2,10L165,1.8l20.7-5.2
			c5.2-3.6,9.8-7.6,14-11.8c2.1-2,4.2-4.1,6.1-6.4C207.5-23.6,209.2-25.6,210.7-27.5z M212.3-129.9l16.4,2.6l-13.5-25L212.3-129.9z
			 M165-75l7.5-10.5l-4.4,21.8L165-75z M204.6-179.2l-14.1-3.8l30.4,25.8C216.3-165.2,210.9-172.6,204.6-179.2z M143.1-74.3l2.7-3.4
			l13.2-1.6l-7.9,9.5L143.1-74.3z M99.6-48.8l5.2,1.9l9.5-13.5H94.8l7.5,8.2L99.6-48.8z M90.8-40.6l-6.6,7.5h17.1L90.8-40.6z
			 M50.7-7.8l-6.4-8.3l9.5,2.9c5,1.8,7.1-0.5,6.4-6.9l-1.6-10.5c-0.4-4.4-2.4-4.7-6-0.9C51.3-30,49.8-29,48-28.4
			c-3.4,1.2-7.3,0.1-11.6-3.5c-4.3-3.4-7.7-7.9-10.2-13.6l8.2-4.1c3.9,9.2,7.7,12.9,11.4,11.1c2.6-1.1,4.2-3.5,4.9-7.2l0.8-11.6
			c0.4-6.9-2.5-11.1-8.9-12.4l-3-1l-22.7-36.8l5.1-19.8l6.9,8.1l12.9-9l6.9-0.8l1.8-6.3l6.3-2.5c8.2-3,12.6-8.8,13.2-17.6l0.2-2.9
			c0.3-6.8-1.8-14.1-6.4-21.9L77.3-204c-27,17.4-43.7,36.8-50.2,58.2l-5.2,18.5L-5-98l1.3,15.2l-0.1,0.1h0.1
			c3.2,23,12.7,43.3,28.4,60.9c3.9,4.5,7.9,8.4,11.9,11.7l13.2,6.7L50.7-7.8z M160-176.6l-5.4,10.1l4.4,9.3l16.5,2.5L160-176.6z
			 M27.1-114.6l-5.9,12l19.5-17.2L27.1-114.6z"/>
	</g>
</symbol>
<path d="M201.9,86.1c-21.5-15.2-46.7-23.4-73.1-23.6c-0.4,0-0.7,0-1.1,0c-26.7,0-52.3,8.1-74,23.5c-0.3,3.5-0.5,6.9-0.6,10.2
	c-0.4,25.1,6.9,49.6,21,70.7c13.1,19.7,31.6,35.6,53.3,46.2c45.2-21.4,74.6-66.4,75-115.3C202.4,94,202.2,90.1,201.9,86.1z
	 M134.9,138.5v21c0,1.4-1.2,2.6-2.6,2.6h-9.5c-1.4,0-2.6-1.2-2.6-2.6v-21c-7.1-3.1-12-10.5-11.2-18.9c0.8-8.6,7.8-15.6,16.4-16.6
	c11.2-1.2,20.7,7.5,20.7,18.4C146.1,129.1,141.5,135.6,134.9,138.5z"/>
<path d="M251.5,156.8c-0.1-0.4-0.2-0.9-0.4-1.3c-0.1-0.5-0.3-1.1-0.5-1.6c-0.1-0.4-0.3-0.9-0.4-1.3c-0.2-0.5-0.3-1-0.5-1.5
	c-0.1-0.4-0.3-0.9-0.4-1.3c-0.2-0.5-0.3-1-0.5-1.5c-0.2-0.5-0.3-0.9-0.5-1.4c-0.2-0.5-0.3-1-0.5-1.4c-0.2-0.5-0.4-0.9-0.5-1.4
	c-0.2-0.5-0.4-0.9-0.5-1.4c-0.2-0.5-0.4-0.9-0.6-1.4c-0.2-0.5-0.4-0.9-0.6-1.4c-0.2-0.5-0.4-0.9-0.6-1.4c-0.2-0.4-0.4-0.9-0.6-1.3
	c-0.2-0.5-0.4-0.9-0.7-1.4c-0.2-0.4-0.4-0.9-0.6-1.3c-0.2-0.5-0.5-0.9-0.7-1.4c-0.2-0.4-0.4-0.9-0.6-1.3c-0.2-0.5-0.5-0.9-0.7-1.4
	c-0.2-0.4-0.4-0.8-0.7-1.2c-0.3-0.5-0.5-0.9-0.8-1.4c-0.2-0.4-0.5-0.8-0.7-1.2c-0.3-0.5-0.6-0.9-0.8-1.4c-0.2-0.4-0.5-0.8-0.7-1.2
	c-0.3-0.5-0.6-1-0.9-1.5c-0.2-0.4-0.4-0.7-0.7-1.1c-0.4-0.5-0.7-1.1-1.1-1.6c-0.2-0.3-0.4-0.6-0.6-0.9c-0.6-0.8-1.1-1.7-1.7-2.5
	c-0.6-0.8-1.1-1.5-1.5-2.1c-0.4-0.5-0.7-1-1.1-1.4c-0.7-0.9-1.4-1.9-2.2-2.8c-0.2-0.3-0.4-0.5-0.7-0.8c-0.5-0.6-1.1-1.3-1.6-1.9
	c-0.3-0.3-0.5-0.6-0.8-1c-0.5-0.6-1-1.2-1.6-1.7c-0.3-0.3-0.6-0.6-0.8-0.9c-0.6-0.6-1.2-1.3-1.8-1.9c-0.2-0.2-0.4-0.4-0.6-0.7
	c-0.8-0.8-1.6-1.7-2.5-2.5c-0.2-0.2-0.4-0.4-0.6-0.6c-0.7-0.6-1.3-1.2-2-1.9c-0.3-0.3-0.6-0.5-0.9-0.8c-0.3-0.3-0.7-0.6-1-0.9
	c0,1.1,0,2.2,0,3.2c-0.4,50-28.8,96.2-73.2,120.6l0,0l-0.3,0.1c-3.2,1.8-6.5,3.4-9.9,4.9l-0.8,0.4c-0.1,0.1-0.3,0.1-0.4,0.2
	c-9.3,4.1-19.8,7.2-31.2,9.1c-1,0.2-1.9,0.3-2.9,0.5c-0.5,0.1-0.9,0.1-1.4,0.2c-0.5,0.1-1,0.1-1.6,0.2c-0.6,0.1-1.1,0.1-1.7,0.2
	c-0.4,0-0.8,0.1-1.3,0.1c-0.6,0.1-1.2,0.1-1.8,0.2c-0.4,0-0.8,0.1-1.2,0.1c-0.6,0-1.2,0.1-1.8,0.1c-0.4,0-0.8,0.1-1.2,0.1
	c-0.6,0-1.2,0.1-1.8,0.1c-0.4,0-0.8,0-1.2,0.1c-0.6,0-1.1,0-1.7,0.1c-0.4,0-0.9,0-1.3,0c-0.5,0-1.1,0-1.6,0c-0.3,0-0.6,0-0.9,0
	c-0.4,0-0.7,0-1.1,0c-1.4,0-2.7,0-4.1-0.1c-0.4,0-0.9,0-1.3-0.1c-0.9,0-1.8-0.1-2.8-0.2c-0.5,0-1-0.1-1.6-0.1
	c-0.8-0.1-1.7-0.1-2.5-0.2c-0.5-0.1-1.1-0.1-1.6-0.2c-0.8-0.1-1.6-0.2-2.4-0.3c-0.3,0-0.6-0.1-0.8-0.1c20.8,14.1,45.3,21.8,70.8,22
	c0.4,0,0.7,0,1.1,0c32.6,0,63.7-12.2,87.6-34.6c18.1-16.9,30.8-38.4,36.8-62.2c-0.1-0.2-0.1-0.5-0.2-0.7
	C251.8,157.9,251.6,157.4,251.5,156.8z"/>
<path d="M73,224.8c7.5,0.1,15-0.5,22.4-1.8c1.5-0.3,3.1-0.5,4.6-0.9c0.5-0.1,0.9-0.2,1.4-0.3c1.1-0.2,2.1-0.5,3.2-0.7
	c0.5-0.1,1-0.2,1.4-0.3c1.2-0.3,2.3-0.6,3.5-0.9c0.3-0.1,0.6-0.1,0.8-0.2c1.4-0.4,2.8-0.8,4.1-1.3c0.1,0,0.2-0.1,0.3-0.1
	c-19.9-11.2-36.8-26.8-49.3-45.6c-15.3-22.9-23.1-49.4-22.7-76.6c0.1-4.2,0.3-8.6,0.8-13.1c0-0.1,0-0.2,0-0.3l0.1-0.6
	c0.1-1.1,0.3-2.3,0.4-3.4c1.6-11.1,4.5-22,8.6-32.3c0.6-1.4,1.1-2.7,1.7-4.1c0.2-0.4,0.4-0.8,0.5-1.2c0.4-1,0.9-1.9,1.4-2.9
	c0.2-0.4,0.4-0.9,0.6-1.3c0.5-1,1-1.9,1.5-2.9c0.2-0.4,0.4-0.7,0.6-1.1c0.7-1.3,1.4-2.6,2.2-3.9c0.1-0.1,0.2-0.3,0.3-0.4
	c0.7-1.1,1.3-2.2,2-3.4c0.3-0.4,0.5-0.8,0.8-1.2c0.6-0.9,1.1-1.7,1.7-2.6c0.3-0.4,0.6-0.8,0.8-1.3c0.6-0.9,1.2-1.8,1.9-2.7
	c0.2-0.3,0.5-0.6,0.7-1c0.9-1.2,1.8-2.4,2.7-3.5c0,0,0.1-0.1,0.1-0.1C28.9,33.9,0.7,77.3,0,126.3c-0.2,10.5,1,21,3.4,31.3
	c5.5,23.6,17.6,45,35.1,62.1c2.1,0.6,4.3,1.2,6.6,1.8c8,1.8,16.1,2.9,24.3,3.2C70.6,224.8,71.8,224.8,73,224.8z"/>
<path d="M164.6,5.4L164.6,5.4c-11.7-3.5-23.8-5.3-35.9-5.4C116.8-0.1,105,1.5,93.6,4.6c-0.3,0.3-0.6,0.6-0.9,0.8
	c-0.4,0.4-0.8,0.8-1.2,1.2C91,7,90.6,7.5,90.2,7.9c-0.4,0.4-0.8,0.8-1.2,1.2c-0.4,0.4-0.8,0.9-1.3,1.3c-0.4,0.4-0.8,0.8-1.1,1.2
	c-0.4,0.5-0.8,0.9-1.2,1.4c-0.4,0.4-0.7,0.8-1.1,1.3c-0.4,0.5-0.8,0.9-1.2,1.4c-0.4,0.4-0.7,0.9-1.1,1.3c-0.4,0.5-0.8,1-1.2,1.5
	c-0.3,0.4-0.7,0.9-1,1.3c-0.4,0.5-0.8,1-1.1,1.5c-0.3,0.4-0.7,0.9-1,1.3c-0.4,0.5-0.7,1-1.1,1.5c-0.3,0.4-0.6,0.9-0.9,1.3
	c-0.4,0.5-0.7,1.1-1.1,1.6c-0.3,0.4-0.6,0.9-0.9,1.3c-0.4,0.5-0.7,1.1-1,1.6c-0.3,0.4-0.6,0.9-0.8,1.3c-0.3,0.6-0.7,1.1-1,1.7
	c-0.3,0.4-0.5,0.9-0.8,1.3c-0.3,0.6-0.7,1.2-1,1.8c-0.2,0.4-0.5,0.9-0.7,1.3c-0.3,0.6-0.7,1.3-1,1.9c-0.2,0.4-0.4,0.8-0.6,1.2
	c-0.4,0.7-0.7,1.4-1,2.1c-0.2,0.4-0.3,0.7-0.5,1.1c-0.4,0.9-0.8,1.7-1.2,2.6c-0.1,0.2-0.2,0.4-0.3,0.6c-0.5,1.1-0.9,2.2-1.4,3.2
	c-0.4,1.1-0.9,2.2-1.3,3.3c-0.1,0.3-0.2,0.6-0.3,0.9c-0.3,0.8-0.6,1.7-0.9,2.5c-0.1,0.3-0.2,0.6-0.3,0.9c-0.4,1.1-0.7,2.2-1.1,3.3
	c0,0,0,0.1,0,0.1c-0.3,1.1-0.6,2.1-0.9,3.2c-0.1,0.3-0.2,0.6-0.3,1c-0.2,0.9-0.4,1.7-0.7,2.6c-0.1,0.3-0.1,0.6-0.2,0.9
	c-0.3,1.1-0.5,2.2-0.7,3.3c21.7-13.2,46.3-20.1,72-20.1c0.4,0,0.8,0,1.2,0c25.8,0.2,50.6,7.4,72.3,21l0,0l0.3,0.2
	c2.9,1.8,5.7,3.7,8.4,5.7l0.1,0c0.2,0.1,0.4,0.3,0.6,0.4l0.3,0.2c0.7,0.5,1.4,1.1,2.1,1.6c0.4,0.3,0.8,0.6,1.2,0.9
	c0.3,0.2,0.6,0.5,0.9,0.7c0.7,0.6,1.4,1.2,2.1,1.7c4.8,4.1,9.4,8.5,13.7,13.2c2.5,2.8,4.9,5.6,7.2,8.6c0.9,1.1,1.8,2.3,2.8,3.8
	c0.7,1,1.4,2,2,3c0.2,0.3,0.5,0.7,0.7,1c0.4,0.7,0.9,1.3,1.3,2c0.3,0.4,0.5,0.8,0.8,1.2c0.4,0.6,0.8,1.2,1.1,1.8
	c0.3,0.4,0.5,0.9,0.8,1.3c0.4,0.6,0.7,1.2,1.1,1.8c0.2,0.4,0.5,0.9,0.7,1.3c0.4,0.6,0.7,1.3,1,1.9c0.2,0.4,0.4,0.8,0.6,1.2
	c0.4,0.8,0.8,1.6,1.2,2.5c0.1,0.2,0.2,0.5,0.4,0.7c0.5,1.1,1,2.1,1.5,3.2c0.2,0.4,0.3,0.7,0.5,1.1c0.3,0.7,0.6,1.5,1,2.2
	c0.1,0.1,0.1,0.3,0.2,0.4c0.2-2.7,0.3-5.4,0.3-8c0.2-28.3-8.6-55.1-25.5-77.7C214.1,29.6,190.7,13.2,164.6,5.4z"/>
</svg>
