<?xml version="1.0" encoding="utf-8"?>
<!-- Generator: Adobe Illustrator 22.0.1, SVG Export Plug-In . SVG Version: 6.00 Build 0)  -->
<svg version="1.1" id="Layer_1" xmlns="http://www.w3.org/2000/svg" xmlns:xlink="http://www.w3.org/1999/xlink" x="0px" y="0px"
	 viewBox="0 0 899 260" style="enable-background:new 0 0 899 260;" xml:space="preserve">
<style type="text/css">
	.st0{fill-rule:evenodd;clip-rule:evenodd;fill:#FFFFFF;}
	.st1{fill-rule:evenodd;clip-rule:evenodd;fill:#2D364C;}
	.st2{fill:#2D364C;}
	.st3{fill:#767683;}
	.st4{fill:#FFFFFF;}
	.st5{fill:url(#SVGID_1_);}
	.st6{fill:url(#SVGID_2_);}
	.st7{fill:url(#SVGID_3_);}
	.st8{fill:url(#SVGID_4_);}
	.st9{fill:url(#SVGID_5_);}
	.st10{opacity:5.000000e-02;fill:url(#SVGID_6_);}
	.st11{opacity:0.17;clip-path:url(#SVGID_8_);fill:url(#SVGID_9_);}
	.st12{opacity:0.2;clip-path:url(#SVGID_11_);fill:url(#SVGID_12_);}
	.st13{opacity:0.38;clip-path:url(#SVGID_14_);fill:url(#SVGID_15_);}
</style>
<symbol  id="map_copy" viewBox="-5 -204 239.7 213.7">
	<g id="Layer_3_7_">
		<path class="st0" d="M106.8,1.5L92.6-23L64.9-42.8l8.9,31.2L62.8-4l8.6,10.4l29.8,3.4L106.8,1.5z M210.7-27.5
			c1.4-1.8,2.9-3.7,4.5-5.6c2.1-3.2,3.9-6.5,5.6-9.6c0.5-1,1.1-2,1.6-3.1c3.7-7,6.6-14.5,8.6-22.3c0.4-1.4,0.8-2.9,1.2-4.4
			c1.1-4.6,1.9-9.5,2.4-14.5c0-0.1,0-0.1,0-0.2v-0.1l-13.5-38.5h-5.8l-2.1,22.5l-12.7-21.2l-10.1,21.2l-12.6,0.8l4.5-6.8l-12-5
			l-21.2,21.1l20-40.9l-13.1-9.6v-12.6l-20.4-23.1l-6,0.9l-6.7,20.9l4.8,6l-13.2,22.9l-13.8-3.6l-17.5,16.6l13.9,22.6l22.8,8.6
			l3-4.9l26.1-3.8l5.5,8l-9.4-2.5l-6.3,9.9l0.3-7.6l-7.1,4.2l-4.1-5.4l-1.5,8.7l-7.4,4.4L106-85.2l-7.1-2.5L98.1-74l5.8-0.5
			l-1.9,6.2l15,7.1l3.3,7.5l7.5-3l11.9,12.4l-4,6.8L128-51.5l-13,9.9l16.9,21.1L146-29l10,6.3l5.2,10L165,1.8l20.7-5.2
			c5.2-3.6,9.8-7.6,14-11.8c2.1-2,4.2-4.1,6.1-6.4C207.5-23.6,209.2-25.6,210.7-27.5z M212.3-129.9l16.4,2.6l-13.5-25L212.3-129.9z
			 M165-75l7.5-10.5l-4.4,21.8L165-75z M204.6-179.2l-14.1-3.8l30.4,25.8C216.3-165.2,210.9-172.6,204.6-179.2z M143.1-74.3l2.7-3.4
			l13.2-1.6l-7.9,9.5L143.1-74.3z M99.6-48.8l5.2,1.9l9.5-13.5H94.8l7.5,8.2L99.6-48.8z M90.8-40.6l-6.6,7.5h17.1L90.8-40.6z
			 M50.7-7.8l-6.4-8.3l9.5,2.9c5,1.8,7.1-0.5,6.4-6.9l-1.6-10.5c-0.4-4.4-2.4-4.7-6-0.9C51.3-30,49.8-29,48-28.4
			c-3.4,1.2-7.3,0.1-11.6-3.5c-4.3-3.4-7.7-7.9-10.2-13.6l8.2-4.1c3.9,9.2,7.7,12.9,11.4,11.1c2.6-1.1,4.2-3.5,4.9-7.2l0.8-11.6
			c0.4-6.9-2.5-11.1-8.9-12.4l-3-1l-22.7-36.8l5.1-19.8l6.9,8.1l12.9-9l6.9-0.8l1.8-6.3l6.3-2.5c8.2-3,12.6-8.8,13.2-17.6l0.2-2.9
			c0.3-6.8-1.8-14.1-6.4-21.9L77.3-204c-27,17.4-43.7,36.8-50.2,58.2l-5.2,18.5L-5-98l1.3,15.2l-0.1,0.1h0.1
			c3.2,23,12.7,43.3,28.4,60.9c3.9,4.5,7.9,8.4,11.9,11.7l13.2,6.7L50.7-7.8z M160-176.6l-5.4,10.1l4.4,9.3l16.5,2.5L160-176.6z
			 M27.1-114.6l-5.9,12l19.5-17.2L27.1-114.6z"/>
	</g>
</symbol>
<g>
	<path class="st1" d="M433.2,56.4c-4.3-1.7-7.5,1.5-8.3,3.6l-15.5,40.7L393.9,60c-0.8-2.1-4-5.3-8.3-3.6c-4.6,1.8-4.4,6.2-3.6,8.1
		c0,0,12.9,34,17.1,44.9c2.4,6.3,7.1,7.7,10.3,7.7c3.2,0,7.9-1.3,10.3-7.7c4.2-11,17.1-44.9,17.1-44.9
		C437.6,62.6,437.9,58.2,433.2,56.4"/>
	<path class="st1" d="M367.4,55.9c-4.7,0-6.5,3.7-6.5,6.4v5c-4.8-6.5-11.4-10.8-20.3-10.8c-7.3,0-13.5,2.9-18.6,8.8
		c-5.1,5.9-7.7,12.9-7.7,21.2c0,8.3,2.6,15.3,7.7,21.2c5.1,5.9,11.3,8.8,18.6,8.8c9.6,0,16.2-5.2,20.3-10.9v5.3
		c0,2.4,1.9,6.2,6.4,6.2c4.5,0,6.3-3.9,6.3-6.4V62.3C373.6,58.2,370.1,55.9,367.4,55.9 M343.9,104.9c-9.8,0-16.8-8.9-16.8-18.5
		c0-10.1,7.2-18.4,16.8-18.4c10.3,0,16.8,9.2,16.8,18.4C360.7,96.2,353.8,104.9,343.9,104.9"/>
	<path class="st1" d="M492.9,55.9c-4.7,0-6.5,3.7-6.5,6.4v5c-4.8-6.5-11.4-10.8-20.3-10.8c-7.3,0-13.5,2.9-18.6,8.8
		c-5.1,5.9-7.7,12.9-7.7,21.2c0,8.3,2.6,15.3,7.7,21.2c5.1,5.9,11.3,8.8,18.6,8.8c9.6,0,16.2-5.2,20.3-10.9v5.3
		c0,2.4,1.9,6.2,6.4,6.2c4.5,0,6.3-3.9,6.3-6.4V62.3C499.2,58.2,495.6,55.9,492.9,55.9 M469.4,104.9c-9.8,0-16.8-8.9-16.8-18.5
		c0-10.1,7.2-18.4,16.8-18.4c10.3,0,16.8,9.2,16.8,18.4C486.2,96.2,479.3,104.9,469.4,104.9"/>
	<g>
		<path class="st2" d="M509.9,110.1c-1.5-0.8-2.6-2.5-2.6-4.7c0-3,2.3-5.5,5.5-5.5c1.1,0,2.1,0.3,2.9,0.8c5.7,3.8,11.6,5.7,17,5.7
			c5.8,0,9.2-2.5,9.2-6.4v-0.2c0-4.6-6.3-5.9-13.2-8.1c-8.7-2.5-18.5-6.3-18.5-17.6v-0.2c0-11.2,9.3-18,21-18
			c6.3,0,12.9,1.8,18.6,4.8c1.9,1,3.2,2.8,3.2,5.1c0,3.1-2.5,5.5-5.6,5.5c-1.1,0-1.8-0.2-2.7-0.7c-4.8-2.5-9.7-4-13.9-4
			c-5.3,0-8.3,2.5-8.3,5.8v0.2c0,4.4,6.4,5.9,13.3,8.2c8.6,2.7,18.4,6.8,18.4,17.5v0.2c0,12.4-9.6,18.6-21.9,18.6
			C524.9,117.1,516.7,114.8,509.9,110.1z"/>
	</g>
	<g>
		<path class="st2" d="M566.6,99.9V69.2H564c-3.2,0-5.8-2.6-5.8-5.8c0-3.2,2.6-5.8,5.8-5.8h2.6v-9.1c0-3.7,2.7-6.7,6.5-6.7
			c3.7,0,6.3,3,6.3,6.7v9.1h10.1c3.2,0,5.9,2.6,5.9,5.8c0,3.2-2.7,5.8-5.9,5.8h-10.1v28.6c0,5.2,3.1,7.4,7.6,7.4
			c1.6,0,2.9-0.3,3.4-0.3c3,0,5.7,2.5,5.7,5.6c0,2.5-1.7,4.5-3.6,5.2c-2.9,1-5.7,1.6-9.3,1.6C573.3,117.2,566.6,112.9,566.6,99.9z"
			/>
	</g>
</g>
<g>
	<path class="st3" d="M314.8,192.7L314.8,192.7c0.9-1.3,2.6-1.6,3.9-0.8c4.2,2.6,8.7,4.1,13.1,4.1c5.3,0,9.2-2.7,9.2-7v-0.2
		c0-4.5-5.2-6.2-11.1-7.8c-6.9-2-14.7-4.4-14.7-12.5v-0.2c0-7.6,6.3-12.7,15.1-12.7c4.4,0,9.2,1.3,13.3,3.3c1.5,0.8,2,2.6,1.2,4.1
		l0,0c-0.8,1.3-2.5,1.8-3.8,1.1c-3.5-1.8-7.3-2.9-10.8-2.9c-5.2,0-8.6,2.7-8.6,6.4v0.2c0,4.2,5.5,5.8,11.4,7.6
		c6.9,2.1,14.2,4.7,14.2,12.7v0.2c0,8.4-6.9,13.3-15.8,13.3c-5.3,0-11.2-1.8-15.9-4.7C314.2,196,313.8,194.1,314.8,192.7z"/>
	<path class="st3" d="M352.5,178.7v-0.2c0-12.8,9-23.1,21.3-23.1c13.1,0,20.7,10.5,20.7,23.4v0c0,1.2-0.9,2.1-2.1,2.1h-33.1
		c0.9,9.6,7.7,15,15.6,15c5.1,0,9-1.8,12.2-4.6c1.1-0.9,2.6-0.9,3.7,0.1l0,0c1.2,1.1,1.3,3,0.1,4.1c-4.1,3.8-9,6.1-16.1,6.1
		C362.5,201.8,352.5,192.4,352.5,178.7z M387.8,176.1c-0.7-8.1-5.3-15.1-14.2-15.1c-7.7,0-13.6,6.4-14.4,15.1H387.8z"/>
	<path class="st3" d="M399,178.8v-0.2c0-12.5,9.8-23.2,22.7-23.2c6.9,0,11.6,2.4,15.4,5.6c1.4,1.2,1.4,3.3,0.2,4.6l0,0
		c-1.2,1.3-3.1,1.3-4.5,0.2c-3-2.6-6.5-4.5-11.2-4.5c-9,0-15.9,7.6-15.9,17.2v0.2c0,9.6,7,17.2,16.3,17.2c4.7,0,8.5-1.9,11.7-4.8
		c1.1-1,2.8-1,3.9,0.1h0c1.2,1.1,1.2,3.1,0,4.2c-4,3.8-8.9,6.4-16,6.4C408.8,201.8,399,191.2,399,178.8z"/>
	<path class="st3" d="M445.8,183.9v-24.2c0-1.8,1.5-3.3,3.3-3.3h0c1.8,0,3.3,1.5,3.3,3.3v22.6c0,8.2,4.5,13.4,12.3,13.4
		c7.5,0,13.3-5.6,13.3-13.9v-22.1c0-1.8,1.5-3.3,3.3-3.3l0,0c1.8,0,3.3,1.5,3.3,3.3v37.8c0,1.8-1.5,3.3-3.3,3.3l0,0
		c-1.8,0-3.3-1.5-3.3-3.3V193c-3,4.8-7.5,8.7-15.2,8.7C452,201.7,445.8,194.5,445.8,183.9z"/>
	<path class="st3" d="M519.7,159.5c0,1.8-1.3,3.2-3.1,3.5c-8.3,1.3-15,8.1-15,20.1v14.4c0,1.8-1.5,3.3-3.3,3.3h0
		c-1.8,0-3.3-1.5-3.3-3.3v-37.7c0-1.8,1.5-3.3,3.3-3.3h0c1.8,0,3.3,1.5,3.3,3.3v8.3c2.7-6.1,7.5-10.7,13.8-12
		C517.6,155.5,519.7,157.2,519.7,159.5L519.7,159.5z"/>
	<path class="st3" d="M666.8,159.5c0,1.8-1.3,3.2-3.1,3.5c-8.3,1.3-15,8.1-15,20.1v14.4c0,1.8-1.5,3.3-3.3,3.3l0,0
		c-1.8,0-3.3-1.5-3.3-3.3v-37.7c0-1.8,1.5-3.3,3.3-3.3l0,0c1.8,0,3.3,1.5,3.3,3.3v8.3c2.7-6.1,7.5-10.7,13.8-12
		C664.7,155.5,666.8,157.2,666.8,159.5L666.8,159.5z"/>
	<path class="st3" d="M897.5,159.5c0,1.8-1.3,3.2-3.1,3.5c-8.3,1.3-15,8.1-15,20.1v14.4c0,1.8-1.5,3.3-3.3,3.3l0,0
		c-1.8,0-3.3-1.5-3.3-3.3v-37.7c0-1.8,1.5-3.3,3.3-3.3l0,0c1.8,0,3.3,1.5,3.3,3.3v8.3c2.7-6.1,7.5-10.7,13.8-12
		C895.5,155.5,897.5,157.2,897.5,159.5L897.5,159.5z"/>
	<path class="st3" d="M596,192.3v5.2c0,1.8-1.5,3.3-3.3,3.3l0,0c-1.8,0-3.3-1.5-3.3-3.3v-56c0-1.8,1.5-3.3,3.3-3.3l0,0
		c1.8,0,3.3,1.5,3.3,3.3v23.9c3.6-5.3,8.8-9.9,17-9.9c10.6,0,21.2,8.4,21.2,23v0.2c0,14.5-10.5,23.1-21.2,23.1
		C604.7,201.7,599.4,197.2,596,192.3z M627.4,178.7v-0.2c0-10.5-7.2-17.2-15.6-17.2c-8.2,0-16,6.9-16,17.1v0.2
		c0,10.3,7.8,17.2,16,17.2C620.4,195.8,627.4,189.4,627.4,178.7z"/>
	<path class="st3" d="M667.9,178.8v-0.2c0-12.5,9.8-23.2,23.2-23.2c13.3,0,23.1,10.5,23.1,23v0.2c0,12.5-9.9,23.2-23.2,23.2
		C677.6,201.8,667.9,191.3,667.9,178.8z M707.3,178.8v-0.2c0-9.5-7.1-17.3-16.5-17.3c-9.6,0-16.2,7.8-16.2,17.2v0.2
		c0,9.5,7,17.2,16.4,17.2C700.7,195.9,707.3,188.1,707.3,178.8z"/>
	<path class="st3" d="M720.5,156.4L720.5,156.4c1.4,0,2.7,0.9,3.1,2.3l10.9,33.3l11.1-33.2c0.5-1.6,2-2.6,3.6-2.6l0,0
		c1.6,0,3.1,1,3.6,2.6L764,192l10.9-33.4c0.4-1.3,1.7-2.2,3.1-2.2l0,0c2.2,0,3.8,2.2,3,4.3l-13.2,37.7c-0.6,1.6-2.1,2.7-3.8,2.7l0,0
		c-1.7,0-3.3-1.1-3.8-2.7l-11-32.3l-11.1,32.2c-0.6,1.7-2.1,2.8-3.9,2.8h0c-1.7,0-3.3-1.1-3.9-2.7l-13-37.6
		C716.6,158.6,718.2,156.4,720.5,156.4z"/>
	<path class="st3" d="M785.9,192.7L785.9,192.7c0.9-1.3,2.6-1.6,3.9-0.8c4.2,2.6,8.7,4.1,13.1,4.1c5.3,0,9.2-2.7,9.2-7v-0.2
		c0-4.5-5.2-6.2-11.1-7.8c-6.9-2-14.7-4.4-14.7-12.5v-0.2c0-7.6,6.3-12.7,15.1-12.7c4.4,0,9.2,1.3,13.3,3.3c1.5,0.8,2,2.6,1.2,4.1
		l0,0c-0.8,1.3-2.5,1.8-3.8,1.1c-3.5-1.8-7.3-2.9-10.8-2.9c-5.2,0-8.6,2.7-8.6,6.4v0.2c0,4.2,5.5,5.8,11.4,7.6
		c6.9,2.1,14.2,4.7,14.2,12.7v0.2c0,8.4-6.9,13.3-15.8,13.3c-5.3,0-11.2-1.8-15.9-4.7C785.3,196,784.9,194.1,785.9,192.7z"/>
	<path class="st3" d="M520.8,178.7v-0.2c0-12.8,9-23.1,21.3-23.1c13.1,0,20.7,10.5,20.7,23.4v0c0,1.2-0.9,2.1-2.1,2.1h-33.1
		c0.9,9.6,7.7,15,15.6,15c5.1,0,9-1.8,12.2-4.6c1.1-0.9,2.6-0.9,3.7,0.1l0,0c1.2,1.1,1.3,3,0.1,4.1c-4.1,3.8-9,6.1-16.1,6.1
		C530.8,201.8,520.8,192.4,520.8,178.7z M556.1,176.1c-0.7-8.1-5.3-15.1-14.2-15.1c-7.7,0-13.6,6.4-14.4,15.1H556.1z"/>
	<path class="st3" d="M823.6,178.7v-0.2c0-12.8,9-23.1,21.3-23.1c13.1,0,20.7,10.5,20.7,23.4v0c0,1.2-0.9,2.1-2.1,2.1h-33.1
		c0.9,9.6,7.7,15,15.6,15c5.1,0,9-1.8,12.2-4.6c1.1-0.9,2.6-0.9,3.7,0.1l0,0c1.2,1.1,1.3,3,0.1,4.1c-4.1,3.8-9,6.1-16.1,6.1
		C833.5,201.8,823.6,192.4,823.6,178.7z M858.9,176.1c-0.7-8.1-5.3-15.1-14.2-15.1c-7.7,0-13.6,6.4-14.4,15.1H858.9z"/>
</g>
<g>
	<circle class="st4" cx="130.1" cy="129.2" r="127"/>
	<g>
		<path class="st4" d="M87.3,173.1c10.8,13.3,25,24.2,42.2,32.6c17.4-8.4,31.6-19.5,42.5-32.8c9.1-11.2,15.8-24.1,19.9-38.4
			c5.6-19.1,5-35.3,4.5-41.6c-24-16.7-46.7-20.6-58.4-21.5l-0.1,0l-0.1,0c0,0-0.1,0-0.1,0c-4-0.3-6.8-0.3-7.9-0.3
			c-0.2,0-0.3,0-0.4,0l-0.1,0l-0.1,0c0,0-0.1,0-0.4,0c-1,0-3.9,0-7.9,0.3c0,0-0.1,0-0.1,0l0,0l0,0c-11.6,0.8-34.4,4.7-58.4,21.5
			c-0.5,6.3-1,22.9,4.7,42.1C71.5,149.1,78.3,161.9,87.3,173.1z M111.1,120.8c0.8-8.6,7.8-15.6,16.4-16.6
			c11.2-1.2,20.7,7.5,20.7,18.4c0,7.6-4.6,14.2-11.2,17v21c0,1.4-1.2,2.6-2.6,2.6h-9.5c-1.4,0-2.6-1.2-2.6-2.6v-21
			C115.1,136.6,110.3,129.2,111.1,120.8z"/>
		<linearGradient id="SVGID_1_" gradientUnits="userSpaceOnUse" x1="53.0369" y1="138.9225" x2="206.5084" y2="138.9225">
			<stop  offset="0" style="stop-color:#E6E6E6"/>
			<stop  offset="0.1614" style="stop-color:#F6F6F6"/>
			<stop  offset="0.3" style="stop-color:#FFFFFF"/>
			<stop  offset="0.7" style="stop-color:#FFFFFF"/>
			<stop  offset="0.8386" style="stop-color:#F6F6F6"/>
			<stop  offset="1" style="stop-color:#E6E6E6"/>
		</linearGradient>
		<path class="st5" d="M53.1,98.6c-0.8,52.4,31.3,97,76.4,118c44.4-20.1,76.7-64.1,77.1-116.3c0-4.8-0.2-9.5-0.7-14.1h0
			c-21-15.5-46.9-24.7-75-24.9c-28.8-0.2-55.4,9-77,24.8c0,0.1,0,0.2,0,0.4C53.4,90.5,53.1,94.5,53.1,98.6z M62.7,92.9
			c24-16.8,46.8-20.6,58.4-21.5l0,0l0,0c0,0,0.1,0,0.1,0c4-0.3,6.8-0.3,7.9-0.3c0.2,0,0.3,0,0.4,0l0.1,0l0.1,0c0,0,0.1,0,0.4,0
			c1,0,3.9,0,7.9,0.3c0,0,0.1,0,0.1,0l0.1,0l0.1,0c11.6,0.8,34.4,4.7,58.4,21.5c0.5,6.2,1,22.5-4.5,41.6
			c-4.2,14.3-10.9,27.2-19.9,38.4c-10.8,13.4-25.1,24.4-42.5,32.8c-17.2-8.4-31.4-19.3-42.2-32.6c-9.1-11.1-15.8-24-20-38.1
			C61.6,115.8,62.2,99.2,62.7,92.9z"/>
		<linearGradient id="SVGID_2_" gradientUnits="userSpaceOnUse" x1="51.2402" y1="9.922" x2="70.3569" y2="228.4264">
			<stop  offset="0" style="stop-color:#FF7800"/>
			<stop  offset="0.6" style="stop-color:#FF7800"/>
			<stop  offset="0.764" style="stop-color:#FC6F00"/>
			<stop  offset="1" style="stop-color:#F55A00"/>
		</linearGradient>
		<path class="st6" d="M53.1,98.6c0.1-4.1,0.3-8.1,0.8-12.1c0-0.1,0-0.2,0-0.4c0-0.2,0-0.3,0.1-0.5c0.1-1.1,0.3-2.1,0.4-3.2
			c1.5-10.4,4.2-20.4,8-29.9C69.5,34.8,80.6,19,94.4,6.1c-0.2,0-0.3,0.1-0.5,0.1c-0.4,0.1-0.9,0.3-1.3,0.4
			C40.9,22.7,2.9,70.5,2.1,127.5c-0.2,10.8,1,21.2,3.4,31.3c5.7,24.4,18.4,46.1,35.9,63c2.6,0.8,5.2,1.5,7.8,2.1
			c9,2.1,18.3,3.2,27.9,3.3c7.6,0.1,15.1-0.5,22.4-1.8c10-1.7,19.7-4.4,28.8-8.4c0.2-0.1,0.3-0.2,0.5-0.2c0.1,0,0.2-0.1,0.3-0.1
			c0.1,0,0.2-0.1,0.3-0.1C84.4,195.6,52.3,151,53.1,98.6z"/>
		<linearGradient id="SVGID_3_" gradientUnits="userSpaceOnUse" x1="55.4478" y1="67.9888" x2="262.3375" y2="86.0893">
			<stop  offset="0" style="stop-color:#5E29DD"/>
			<stop  offset="0.3532" style="stop-color:#8050FF"/>
			<stop  offset="1" style="stop-color:#8050FF"/>
		</linearGradient>
		<path class="st7" d="M166.7,6.6c-11.4-3.4-23.4-5.3-35.9-5.4C118.2,1.1,106,2.8,94.4,6.1C80.6,19,69.5,34.8,62.3,52.6
			c-3.8,9.4-6.5,19.4-8,29.9c-0.1,1.1-0.3,2.1-0.4,3.2c0,0.2,0,0.3-0.1,0.5c21.5-15.8,48.2-25.1,77-24.8c28.1,0.2,54,9.5,75,24.9h0
			c0.3,0.2,0.6,0.4,0.8,0.6c1.3,1,2.6,2,3.9,3.1c7.9,6.4,15,13.7,21.2,21.8c0.9,1.2,1.7,2.3,2.6,3.5c9.3,13.1,16.2,27.9,20.1,43.9
			c2.2-9.3,3.5-19,3.6-28.9C258.6,72,220,22.6,166.7,6.6z"/>
		<linearGradient id="SVGID_4_" gradientUnits="userSpaceOnUse" x1="244.0366" y1="126.1057" x2="77.9117" y2="265.501">
			<stop  offset="1.782853e-03" style="stop-color:#F3AA0B"/>
			<stop  offset="0.4" style="stop-color:#F1C80B"/>
			<stop  offset="1" style="stop-color:#F1C80B"/>
		</linearGradient>
		<path class="st8" d="M234.4,115.3c-0.8-1.2-1.7-2.4-2.6-3.5c-6.2-8.1-13.3-15.4-21.2-21.8c-1.3-1-2.6-2.1-3.9-3.1
			c-0.3-0.2-0.6-0.4-0.8-0.6c0.5,4.6,0.7,9.3,0.7,14.1c-0.4,52.1-32.6,96.2-77.1,116.3c-0.1,0-0.2,0.1-0.3,0.1
			c-0.1,0-0.2,0.1-0.3,0.1c-0.2,0.1-0.3,0.2-0.5,0.2c-9,4-18.7,6.7-28.8,8.4c-7.3,1.2-14.8,1.8-22.4,1.8c-9.6-0.1-18.9-1.2-27.9-3.3
			c-2.7-0.6-5.3-1.3-8-2.1c22.8,21.7,53.5,35.1,87.5,35.4c34.3,0.3,65.5-12.9,88.7-34.5c18-16.8,31.1-38.7,37.1-63.5
			C250.6,143.2,243.7,128.3,234.4,115.3z"/>
		<linearGradient id="SVGID_5_" gradientUnits="userSpaceOnUse" x1="116.6326" y1="160.4976" x2="136.6698" y2="105.4459">
			<stop  offset="0" style="stop-color:#2D364C"/>
			<stop  offset="1" style="stop-color:#4E5D85"/>
		</linearGradient>
		<path class="st9" d="M122.3,139.7v21c0,1.4,1.2,2.6,2.6,2.6h9.5c1.4,0,2.6-1.2,2.6-2.6v-21c6.6-2.8,11.2-9.4,11.2-17
			c0-10.9-9.5-19.7-20.7-18.4c-8.6,1-15.6,8-16.4,16.6C110.3,129.2,115.1,136.6,122.3,139.7z"/>
		
			<radialGradient id="SVGID_6_" cx="2908.561" cy="390.5528" r="49.525" gradientTransform="matrix(1.554 0 0 1.1077 -4390.5835 -349.8829)" gradientUnits="userSpaceOnUse">
			<stop  offset="0" style="stop-color:#FFFFFF"/>
			<stop  offset="1" style="stop-color:#FFFFFF;stop-opacity:0"/>
		</radialGradient>
		<ellipse class="st10" cx="129.4" cy="82.7" rx="77" ry="54.9"/>
		<g>
			<defs>
				<path id="SVGID_7_" d="M166.7,6.6c-11.4-3.4-23.4-5.3-35.9-5.4C118.2,1.1,106,2.8,94.4,6.1C80.6,19,69.5,34.8,62.3,52.6
					c-3.8,9.4-6.5,19.4-8,29.9c-0.1,1.1-0.3,2.1-0.4,3.2c0,0.2,0,0.3-0.1,0.5c21.5-15.8,48.2-25.1,77-24.8c28.1,0.2,54,9.5,75,24.9
					h0c0.3,0.2,0.6,0.4,0.8,0.6c1.3,1,2.6,2,3.9,3.1c7.9,6.4,15,13.7,21.2,21.8c0.9,1.2,1.7,2.3,2.6,3.5
					c9.3,13.1,16.2,27.9,20.1,43.9c2.2-9.3,3.5-19,3.6-28.9C258.6,72,220,22.6,166.7,6.6z"/>
			</defs>
			<clipPath id="SVGID_8_">
				<use xlink:href="#SVGID_7_"  style="overflow:visible;"/>
			</clipPath>
			
				<radialGradient id="SVGID_9_" cx="147.0305" cy="-517.9637" r="80.7573" gradientTransform="matrix(0.9848 -0.1671 0.1669 0.9859 148.1845 574.0859)" gradientUnits="userSpaceOnUse">
				<stop  offset="0" style="stop-color:#FFFFFF"/>
				<stop  offset="1" style="stop-color:#FFFFFF;stop-opacity:0"/>
			</radialGradient>
			<path class="st11" d="M286.1,25.3c7.4,44-22.1,85.7-66.1,93.1c-43.9,7.5-85.6-22.2-93-66.1s22.1-85.7,66.1-93.1
				S278.6-18.6,286.1,25.3z"/>
		</g>
		<g>
			<defs>
				<path id="SVGID_10_" d="M53.1,98.6c0.1-4.1,0.3-8.1,0.8-12.1c0-0.1,0-0.2,0-0.4c0-0.2,0-0.3,0.1-0.5c0.1-1.1,0.3-2.1,0.4-3.2
					c1.5-10.4,4.2-20.4,8-29.9C69.5,34.8,80.6,19,94.4,6.1c-0.2,0-0.3,0.1-0.5,0.1c-0.4,0.1-0.9,0.3-1.3,0.4
					C40.9,22.7,2.9,70.5,2.1,127.5c-0.2,10.8,1,21.2,3.4,31.3c5.7,24.4,18.4,46.1,35.9,63c2.6,0.8,5.2,1.5,7.8,2.1
					c9,2.1,18.3,3.2,27.9,3.3c7.6,0.1,15.1-0.5,22.4-1.8c10-1.7,19.7-4.4,28.8-8.4c0.2-0.1,0.3-0.2,0.5-0.2c0.1,0,0.2-0.1,0.3-0.1
					c0.1,0,0.2-0.1,0.3-0.1C84.4,195.6,52.3,151,53.1,98.6z"/>
			</defs>
			<clipPath id="SVGID_11_">
				<use xlink:href="#SVGID_10_"  style="overflow:visible;"/>
			</clipPath>
			
				<radialGradient id="SVGID_12_" cx="14.8783" cy="98.4618" r="81.7905" gradientTransform="matrix(1 0 0 1 -0.4777 -0.5323)" gradientUnits="userSpaceOnUse">
				<stop  offset="0" style="stop-color:#FFFFFF"/>
				<stop  offset="1" style="stop-color:#FFFFFF;stop-opacity:0"/>
			</radialGradient>
			<path class="st12" d="M95,84.3c7.5,44.6-22.4,86.8-66.9,94.3c-44.5,7.5-86.7-22.5-94.2-67s22.4-86.8,66.9-94.3S87.4,39.7,95,84.3
				z"/>
		</g>
		<g>
			<defs>
				<path id="SVGID_13_" d="M234.4,115.3c-0.8-1.2-1.7-2.4-2.6-3.5c-6.2-8.1-13.3-15.4-21.2-21.8c-1.3-1-2.6-2.1-3.9-3.1
					c-0.3-0.2-0.6-0.4-0.8-0.6c0.5,4.6,0.7,9.3,0.7,14.1c-0.4,52.1-32.6,96.2-77.1,116.3c-0.1,0-0.2,0.1-0.3,0.1
					c-0.1,0-0.2,0.1-0.3,0.1c-0.2,0.1-0.3,0.2-0.5,0.2c-9,4-18.7,6.7-28.8,8.4c-7.3,1.2-14.8,1.8-22.4,1.8
					c-9.6-0.1-18.9-1.2-27.9-3.3c-2.7-0.6-5.3-1.3-8-2.1c22.8,21.7,53.5,35.1,87.5,35.4c34.3,0.3,65.5-12.9,88.7-34.5
					c18-16.8,31.1-38.7,37.1-63.5C250.6,143.2,243.7,128.3,234.4,115.3z"/>
			</defs>
			<clipPath id="SVGID_14_">
				<use xlink:href="#SVGID_13_"  style="overflow:visible;"/>
			</clipPath>
			
				<radialGradient id="SVGID_15_" cx="84.8264" cy="-329.8668" r="80.7573" gradientTransform="matrix(0.9848 -0.1671 0.1669 0.9859 148.1845 574.0859)" gradientUnits="userSpaceOnUse">
				<stop  offset="0" style="stop-color:#FFFFFF"/>
				<stop  offset="1" style="stop-color:#FFFFFF;stop-opacity:0"/>
			</radialGradient>
			<path class="st13" d="M256.2,221.2c7.4,44-22.1,85.7-66.1,93.1c-43.9,7.5-85.6-22.2-93-66.1s22.1-85.7,66.1-93.1
				S248.8,177.2,256.2,221.2z"/>
		</g>
	</g>
</g>
</svg>
